<svg xmlns:inkscape="http://www.inkscape.org/namespaces/inkscape" xmlns:sodipodi="http://sodipodi.sourceforge.net/DTD/sodipodi-0.dtd" xmlns="http://www.w3.org/2000/svg" xmlns:svg="http://www.w3.org/2000/svg" id="chart-psychro" class="svg-chart large no-select no-touch" preserveAspectRatio="xMinYMin" style="" viewBox="-15 0 1000 730" version="1.1" sodipodi:docname="psychrometry-chart.svg" inkscape:version="1.2 (dc2aedaf03, 2022-05-15)">
  <sodipodi:namedview id="namedview3047" bordercolor="#ffffff" borderopacity="1" inkscape:pageshadow="0" inkscape:pageopacity="0" inkscape:pagecheckerboard="1" showgrid="false" inkscape:zoom="3.0547013" inkscape:cx="139.29349" inkscape:cy="185.12448" inkscape:window-width="1918" inkscape:window-height="2054" inkscape:window-x="0" inkscape:window-y="0" inkscape:window-maximized="0" inkscape:current-layer="chart-psychro" inkscape:showpageshadow="0"/>
    <defs id="defs1564">
    <filter id="shadow">
      <feGaussianBlur in="SourceAlpha" stdDeviation="6"/>
      <feOffset dx="3" dy="3" result="offsetblur"/>
      <feFlood flood-color="#000" flood-opacity="0.15"/>
      <feComposite in2="offsetblur" operator="in"/>
      <feMerge>
        <feMergeNode/>
        <feMergeNode in="SourceGraphic"/>
      </feMerge>
    </filter>
    <clipPath id="rectClipPath">
      <rect fill="black" width="939.2" height="651" x="5" y="40"/>
    </clipPath>
    <clipPath id="psychroClipPath">
      <path fill="black" d="M5.0,671.0 L20.7,669.0 L36.3,666.9 L52.0,664.6 L67.6,662.2 L83.3,659.5 L98.9,656.5 L114.6,653.4 L130.2,649.9 L145.9,646.2 L161.5,642.2 L177.2,637.8 L192.8,633.1 L208.5,628.0 L224.1,622.5 L239.8,616.6 L255.5,610.9 L271.1,605.0 L286.8,598.6 L302.4,591.7 L318.1,584.5 L333.7,576.7 L349.4,568.5 L365.0,559.8 L380.7,550.4 L396.3,540.5 L412.0,530.0 L427.6,518.8 L443.3,507.0 L458.9,494.4 L474.6,481.0 L490.3,466.9 L505.9,451.9 L521.6,435.9 L537.2,419.1 L552.9,401.2 L568.5,382.3 L584.2,362.3 L599.8,341.1 L615.5,318.7 L631.1,295.0 L646.8,270.0 L662.4,243.5 L678.1,215.5 L693.7,185.9 L709.4,154.6 L725.1,121.6 L740.7,86.7 L756.4,49.8 L760.0,40.0 L944.2,40.0 L944.2,691.0 L5.0,691.0 Z"/>
    </clipPath>
    <marker id="markerBlueArrow" viewBox="0 0 25 20" stroke-dasharray="10 0" markerWidth="25" markerHeight="20" orient="auto" refX="20" refY="10">
      <path d="M 5,15 L 20,10 L 5,5" class="line-blue"/>
    </marker>
    <marker id="markerBlackArrow" viewBox="0 0 25 20" stroke-dasharray="10 0" markerWidth="25" markerHeight="20" orient="auto" refX="20" refY="10">
      <path d="M 5,15 L 20,10 L 5,5" class="line-marker"/>
    </marker>
    <marker id="markerSelectedProcessPt" viewBox="0 0 20 20" markerHeight="20" markerWidth="20" refX="10" refY="10">
      <circle stroke="#00F" stroke-opacity="0.15" stroke-width="2.5" fill="none" cx="10" cy="10" r="5.5"/>
      <circle stroke="#00F" stroke-width="1" fill="none" cx="10" cy="10" r="4"/>
    </marker>
    <marker id="markerProcessPt" viewBox="0 0 6 6" markerHeight="6" markerWidth="6" refX="3" refY="3">
      <circle stroke="none" fill="#00F" cx="3" cy="3" r="2"/>
    </marker>
  </defs>
  <style type="text/css" id="style1566">
/* Base typography and cleanup */
.svg-chart {
  font-family: Inter, ui-sans-serif, system-ui, -apple-system, Segoe UI, Roboto, "Helvetica Neue", Arial, sans-serif;
}
/* Hide non-standard tiles entirely */
.data { display: none; }

/* Axis labels and ticks (light) */
.text-grid {
  fill: #374151;        /* gray-700 */
  font-size: 16px;      /* larger ticks */
  stroke: none;
}
.text-axis {
  fill: #0F172A;        /* slate-900 */
  font-size: 18px;      /* larger axis labels */
  font-weight: 700;
  stroke: none;
  /* visible: reactivation to show RH percentages */
}

/* Lines (light) */
.line-grid {
  stroke: #E5E7EB;      /* gray-200 for softer light grid */
  stroke-width: 1px;
  stroke-opacity: 0.9;
  fill: none;
}
.line-axis {
  stroke: #9CA3AF;      /* gray-400 */
  stroke-width: 1.2px;
  fill: none;
}
.stroke-dashed,
.line-axis.stroke-dashed {
  stroke-dasharray: 3, 3;
  stroke: #94A3B8;      /* slate-400 */
  stroke-width: 1px;
}

/* Background shape behind chart */
.svg-chart .fill-white {
  fill: #FFFFFF;        /* white in light theme */
}

/* Dark theme adjustments via media query */
@media (prefers-color-scheme: dark) {
  .text-grid { fill: #CBD5E1; }          /* slate-300 for readability */
  .text-axis {
    fill: #E2E8F0;                       /* slate-200 */
    /* show axis labels (including RH) */
  }

  .line-grid {
    stroke: #475569;                      /* slate-600 for higher contrast than background */
    stroke-opacity: 0.7;
  }
  .line-axis {
    stroke: #94A3B8;                      /* slate-400 */
  }
  .stroke-dashed,
  .line-axis.stroke-dashed {
    stroke: #94A3B8;                      /* slate-400 */
    stroke-opacity: 0.85;
  }
  .svg-chart .fill-white {
    /* a bit lighter than deep black for better contrast harmony */
    fill: #0F172A;                        /* slate-900 */
  }
}

/* Utility preserved */
.stroke-none { stroke: none !important; }
.stroke-std { stroke-width: 1px; }
.line-std { stroke-width: 1px; stroke: #000; fill: none; }
.text-empty { font-size: 1.25em; font-weight: 600; fill: #ccc; }
.text-hilite { font-size: 16px; font-weight: 600; fill: #EF4444; } /* red-500 */
  </style>
  <g class="background">
    <path class="stroke-grid fill-white" style="filter:url(#shadow)" d="M5.0,671.0 L20.7,669.0 L36.3,666.9 L52.0,664.6 L67.6,662.2 L83.3,659.5 L98.9,656.5 L114.6,653.4 L130.2,649.9 L145.9,646.2 L161.5,642.2 L177.2,637.8 L192.8,633.1 L208.5,628.0 L224.1,622.5 L239.8,616.6 L255.5,610.9 L271.1,605.0 L286.8,598.6 L302.4,591.7 L318.1,584.5 L333.7,576.7 L349.4,568.5 L365.0,559.8 L380.7,550.4 L396.3,540.5 L412.0,530.0 L427.6,518.8 L443.3,507.0 L458.9,494.4 L474.6,481.0 L490.3,466.9 L505.9,451.9 L521.6,435.9 L537.2,419.1 L552.9,401.2 L568.5,382.3 L584.2,362.3 L599.8,341.1 L615.5,318.7 L631.1,295.0 L646.8,270.0 L662.4,243.5 L678.1,215.5 L693.7,185.9 L709.4,154.6 L725.1,121.6 L740.7,86.7 L756.4,49.8 L760.0,40.0 L944.2,40.0 L944.2,691.0 L5.0,691.0 Z"/>
  </g>
  <g class="data" clip-path="url(#psychroClipPath)" stroke="none">
    <g>
      <!-- Hidden via CSS `.data { display: none; }` to remove non-standard tiles -->
      <polygon points="0,0 0,0 0,0"/>
    </g>
  </g>
  <g class="comfort" clip-path="url(#rectClipPath)"/>
  <g class="grid">
    <!-- Grid and axis lines and tick labels retained (text-grid) -->
    <line class="line-grid" x1="5" y1="691" x2="5" y2="670.9592502910572"/>
    <line class="line-axis" x1="5" y1="698" x2="5" y2="691"/>
    <text class="text-grid" text-anchor="middle" x="5" y="698" dy="1.0em">-15</text>
    <line class="line-grid" x1="83.26666666666667" y1="691" x2="83.26666666666667" y2="659.4603372248571"/>
    <line class="line-axis" x1="83.26666666666667" y1="698" x2="83.26666666666667" y2="691"/>
    <text class="text-grid" text-anchor="middle" x="83.26666666666667" y="698" dy="1.0em">-10</text>
    <line class="line-grid" x1="161.53333333333333" y1="691" x2="161.53333333333333" y2="642.1767236663615"/>
    <line class="line-axis" x1="161.53333333333333" y1="698" x2="161.53333333333333" y2="691"/>
    <text class="text-grid" text-anchor="middle" x="161.53333333333333" y="698" dy="1.0em">-5</text>
    <line class="line-grid" x1="239.8" y1="691" x2="239.8" y2="616.5769013628343"/>
    <line class="line-axis" x1="239.8" y1="698" x2="239.8" y2="691"/>
    <text class="text-grid" text-anchor="middle" x="239.8" y="698" dy="1.0em">0</text>
    <line class="line-grid" x1="318.06666666666666" y1="691" x2="318.06666666666666" y2="584.4768221902744"/>
    <line class="line-axis" x1="318.06666666666666" y1="698" x2="318.06666666666666" y2="691"/>
    <text class="text-grid" text-anchor="middle" x="318.06666666666666" y="698" dy="1.0em">5</text>
    <line class="line-grid" x1="396.33333333333337" y1="691" x2="396.33333333333337" y2="540.5399753571234"/>
    <line class="line-axis" x1="396.33333333333337" y1="698" x2="396.33333333333337" y2="691"/>
    <text class="text-grid" text-anchor="middle" x="396.33333333333337" y="698" dy="1.0em">10</text>
    <line class="line-grid" x1="474.6" y1="691" x2="474.6" y2="481.0390506811074"/>
    <line class="line-axis" x1="474.6" y1="698" x2="474.6" y2="691"/>
    <text class="text-grid" text-anchor="middle" x="474.6" y="698" dy="1.0em">15</text>
    <line class="line-grid" x1="552.8666666666667" y1="691" x2="552.8666666666667" y2="401.2238059810507"/>
    <line class="line-axis" x1="552.8666666666667" y1="698" x2="552.8666666666667" y2="691"/>
    <text class="text-grid" text-anchor="middle" x="552.8666666666667" y="698" dy="1.0em">20</text>
    <line class="line-grid" x1="631.1333333333333" y1="691" x2="631.1333333333333" y2="295.01558464755954"/>
    <line class="line-axis" x1="631.1333333333333" y1="698" x2="631.1333333333333" y2="691"/>
    <text class="text-grid" text-anchor="middle" x="631.1333333333333" y="698" dy="1.0em">25</text>
    <line class="line-grid" x1="709.4000000000001" y1="691" x2="709.4000000000001" y2="154.58854209707454"/>
    <line class="line-axis" x1="709.4000000000001" y1="698" x2="709.4000000000001" y2="691"/>
    <text class="text-grid" text-anchor="middle" x="709.4000000000001" y="698" dy="1.0em">30</text>
    <line class="line-grid" x1="787.6666666666667" y1="691" x2="787.6666666666667" y2="40"/>
    <line class="line-axis" x1="787.6666666666667" y1="698" x2="787.6666666666667" y2="691"/>
    <text class="text-grid" text-anchor="middle" x="787.6666666666667" y="698" dy="1.0em">35</text>
    <line class="line-grid" x1="865.9333333333334" y1="691" x2="865.9333333333334" y2="40"/>
    <line class="line-axis" x1="865.9333333333334" y1="698" x2="865.9333333333334" y2="691"/>
    <text class="text-grid" text-anchor="middle" x="865.9333333333334" y="698" dy="1.0em">40</text>
    <line class="line-grid" x1="944.2" y1="691" x2="944.2" y2="40"/>
    <line class="line-axis" x1="944.2" y1="698" x2="944.2" y2="691"/>
    <!-- Horizontal grid lines and labels retained -->
    <line class="line-grid" x1="5" y1="691" x2="944.2" y2="691"/>
    <line class="line-grid" x1="301.1760232687642" y1="592.3636363636364" x2="944.2" y2="592.3636363636364"/>
    <text class="text-grid" text-anchor="start" x="953.2" y="592.3636363636364" dy="0.4em">5</text>
    <line class="line-grid" x1="460.20632390394144" y1="493.7272727272727" x2="944.2" y2="493.7272727272727"/>
    <text class="text-grid" text-anchor="start" x="953.2" y="493.7272727272727" dy="0.4em">10</text>
    <line class="line-grid" x1="558.2493456487483" y1="395.09090909090907" x2="944.2" y2="395.09090909090907"/>
    <text class="text-grid" text-anchor="start" x="953.2" y="395.09090909090907" dy="0.4em">15</text>
    <line class="line-grid" x1="630.1886918465262" y1="296.45454545454544" x2="944.2" y2="296.45454545454544"/>
    <text class="text-grid" text-anchor="start" x="953.2" y="296.45454545454544" dy="0.4em">20</text>
    <line class="line-grid" x1="687.3426189133572" y1="197.8181818181818" x2="944.2" y2="197.8181818181818"/>
    <text class="text-grid" text-anchor="start" x="953.2" y="197.8181818181818" dy="0.4em">25</text>
    <line class="line-grid" x1="734.8903272088412" y1="99.18181818181819" x2="944.2" y2="99.18181818181819"/>
    <text class="text-grid" text-anchor="start" x="953.2" y="99.18181818181819" dy="0.4em">30</text>
    <!-- Relative horizontal grid subdivided -->
    <line class="line-grid" x1="5" y1="671.2727272727273" x2="944.2" y2="671.2727272727273"/>
    <line class="line-grid" x1="123.0725437007809" y1="651.5454545454545" x2="944.2" y2="651.5454545454545"/>
    <line class="line-grid" x1="196.9954436579978" y1="631.8181818181818" x2="944.2" y2="631.8181818181818"/>
    <line class="line-grid" x1="252.0561411524529" y1="612.0909090909091" x2="944.2" y2="612.0909090909091"/>
    <line class="line-grid" x1="342.0230950499212" y1="572.6363636363636" x2="944.2" y2="572.6363636363636"/>
    <line class="line-grid" x1="377.08954921371105" y1="552.9090909090909" x2="944.2" y2="552.9090909090909"/>
    <line class="line-grid" x1="407.8757461549854" y1="533.1818181818182" x2="944.2" y2="533.1818181818182"/>
    <line class="line-grid" x1="435.35748058330563" y1="513.4545454545455" x2="944.2" y2="513.4545454545455"/>
    <line class="line-grid" x1="482.9049282583772" y1="474" x2="944.2" y2="474"/>
    <line class="line-grid" x1="503.81225929754413" y1="454.27272727272725" x2="944.2" y2="454.27272727272725"/>
    <line class="line-grid" x1="523.2028159283724" y1="434.5454545454545" x2="944.2" y2="434.5454545454545"/>
    <line class="line-grid" x1="541.2913912181443" y1="414.8181818181818" x2="944.2" y2="414.8181818181818"/>
    <!-- RH isolines (dashed) retained -->
    <polyline class="line-axis stroke-dashed" opacity="1" points="5.0,689.0 20.7,688.8 36.3,688.6 52.0,688.4 67.6,688.1 83.3,687.8 98.9,687.6 114.6,687.2 130.2,686.9 145.9,686.5 161.5,686.1 177.2,685.7 192.8,685.2 208.5,684.7 224.1,684.2 239.8,683.6 255.5,683.0 271.1,682.4 286.8,681.8 302.4,681.1 318.1,680.3 333.7,679.6 349.4,678.8 365.0,677.9 380.7,676.9 396.3,676.0 412.0,674.9 427.6,673.8 443.3,672.6 458.9,671.3 474.6,670.0 490.3,668.6 505.9,667.1 521.6,665.5 537.2,663.8 552.9,662.0 568.5,660.1 584.2,658.1 599.8,656.0 615.5,653.8 631.1,651.4 646.8,648.9 662.4,646.2 678.1,643.4 693.7,640.5 709.4,637.4 725.1,634.1 740.7,630.6 756.4,626.9 772.0,623.0 787.7,618.9 803.3,614.5 819.0,610.0 834.6,605.1 850.3,600.0 865.9,594.6 881.6,588.9 897.2,582.9 912.9,576.5 928.5,569.8 944.2,562.7 " fill="none"/>
    <polyline class="line-axis stroke-dashed" opacity="1" points="5.0,687.0 20.7,686.6 36.3,686.2 52.0,685.7 67.6,685.2 83.3,684.7 98.9,684.1 114.6,683.5 130.2,682.8 145.9,682.0 161.5,681.2 177.2,680.4 192.8,679.4 208.5,678.4 224.1,677.3 239.8,676.1 255.5,675.0 271.1,673.8 286.8,672.5 302.4,671.1 318.1,669.7 333.7,668.1 349.4,666.5 365.0,664.8 380.7,662.9 396.3,660.9 412.0,658.8 427.6,656.6 443.3,654.2 458.9,651.7 474.6,649.0 490.3,646.2 505.9,643.2 521.6,640.0 537.2,636.6 552.9,633.0 568.5,629.3 584.2,625.3 599.8,621.0 615.5,616.5 631.1,611.8 646.8,606.8 662.4,601.5 678.1,595.9 693.7,590.0 709.4,583.7 725.1,577.1 740.7,570.1 756.4,562.8 772.0,555.0 787.7,546.8 803.3,538.1 819.0,528.9 834.6,519.2 850.3,509.0 865.9,498.2 881.6,486.8 897.2,474.8 912.9,462.1 928.5,448.7 944.2,434.5 " fill="none"/>
    <polyline class="line-axis stroke-dashed" opacity="1" points="5.0,685.0 20.7,684.4 36.3,683.8 52.0,683.1 67.6,682.3 83.3,681.5 98.9,680.7 114.6,679.7 130.2,678.7 145.9,677.6 161.5,676.4 177.2,675.0 192.8,673.6 208.5,672.1 224.1,670.5 239.8,668.7 255.5,667.0 271.1,665.2 286.8,663.3 302.4,661.2 318.1,659.0 333.7,656.7 349.4,654.3 365.0,651.6 380.7,648.8 396.3,645.9 412.0,642.7 427.6,639.4 443.3,635.8 458.9,632.0 474.6,628.0 490.3,623.8 505.9,619.3 521.6,614.5 537.2,609.4 552.9,604.1 568.5,598.4 584.2,592.4 599.8,586.0 615.5,579.3 631.1,572.2 646.8,564.7 662.4,556.7 678.1,548.3 693.7,539.5 709.4,530.1 725.1,520.2 740.7,509.7 756.4,498.6 772.0,487.0 787.7,474.6 803.3,461.6 819.0,447.9 834.6,433.3 850.3,418.0 865.9,401.8 881.6,384.7 897.2,366.7 912.9,347.6 928.5,327.5 944.2,306.2 " fill="none"/>
    <polyline class="line-axis stroke-dashed" opacity="1" points="5.0,683.0 20.7,682.2 36.3,681.4 52.0,680.5 67.6,679.5 83.3,678.4 98.9,677.2 114.6,675.9 130.2,674.6 145.9,673.1 161.5,671.5 177.2,669.7 192.8,667.8 208.5,665.8 224.1,663.6 239.8,661.2 255.5,659.0 271.1,656.6 286.8,654.0 302.4,651.3 318.1,648.4 333.7,645.3 349.4,642.0 365.0,638.5 380.7,634.8 396.3,630.8 412.0,626.6 427.6,622.1 443.3,617.4 458.9,612.4 474.6,607.0 490.3,601.3 505.9,595.3 521.6,589.0 537.2,582.2 552.9,575.1 568.5,567.5 584.2,559.5 599.8,551.0 615.5,542.1 631.1,532.6 646.8,522.6 662.4,512.0 678.1,500.8 693.7,488.9 709.4,476.4 725.1,463.2 740.7,449.3 756.4,434.5 772.0,418.9 787.7,402.5 803.3,385.1 819.0,366.8 834.6,347.5 850.3,327.0 865.9,305.4 881.6,282.6 897.2,258.6 912.9,233.2 928.5,206.3 944.2,178.0 " fill="none"/>
    <polyline class="line-axis stroke-dashed" opacity="1" points="5.0,681.0 20.7,680.0 36.3,679.0 52.0,677.8 67.6,676.6 83.3,675.2 98.9,673.8 114.6,672.2 130.2,670.5 145.9,668.6 161.5,666.6 177.2,664.4 192.8,662.1 208.5,659.5 224.1,656.8 239.8,653.8 255.5,651.0 271.1,648.0 286.8,644.8 302.4,641.4 318.1,637.7 333.7,633.9 349.4,629.8 365.0,625.4 380.7,620.7 396.3,615.8 412.0,610.5 427.6,604.9 443.3,599.0 458.9,592.7 474.6,586.0 490.3,578.9 505.9,571.4 521.6,563.5 537.2,555.0 552.9,546.1 568.5,536.7 584.2,526.7 599.8,516.1 615.5,504.9 631.1,493.0 646.8,480.5 662.4,467.2 678.1,453.2 693.7,438.4 709.4,422.8 725.1,406.3 740.7,388.8 756.4,370.4 772.0,350.9 787.7,330.4 803.3,308.7 819.0,285.8 834.6,261.6 850.3,236.0 865.9,209.0 881.6,180.6 897.2,150.5 912.9,118.7 928.5,85.2 944.2,49.7 " fill="none"/>
    <polyline class="line-axis stroke-dashed" opacity="1" points="5.0,679.0 20.7,677.8 36.3,676.6 52.0,675.2 67.6,673.7 83.3,672.1 98.9,670.3 114.6,668.4 130.2,666.4 145.9,664.1 161.5,661.7 177.2,659.1 192.8,656.3 208.5,653.2 224.1,649.9 239.8,646.3 255.5,643.0 271.1,639.4 286.8,635.5 302.4,631.4 318.1,627.1 333.7,622.4 349.4,617.5 365.0,612.3 380.7,606.7 396.3,600.7 412.0,594.4 427.6,587.7 443.3,580.6 458.9,573.0 474.6,565.0 490.3,556.5 505.9,547.5 521.6,538.0 537.2,527.8 552.9,517.1 568.5,505.8 584.2,493.8 599.8,481.1 615.5,467.6 631.1,453.4 646.8,438.4 662.4,422.5 678.1,405.7 693.7,387.9 709.4,369.2 725.1,349.3 740.7,328.4 756.4,306.3 772.0,282.9 787.7,258.3 803.3,232.2 819.0,204.7 834.6,175.7 850.3,145.0 865.9,112.7 881.6,78.5 897.2,42.4 898.2,40.0 " fill="none"/>
    <polyline class="line-axis stroke-dashed" opacity="1" points="5.0,677.0 20.7,675.6 36.3,674.1 52.0,672.5 67.6,670.8 83.3,668.9 98.9,666.9 114.6,664.7 130.2,662.2 145.9,659.6 161.5,656.8 177.2,653.8 192.8,650.5 208.5,646.9 224.1,643.1 239.8,638.9 255.5,635.0 271.1,630.8 286.8,626.3 302.4,621.5 318.1,616.4 333.7,611.0 349.4,605.3 365.0,599.1 380.7,592.6 396.3,585.7 412.0,578.3 427.6,570.5 443.3,562.2 458.9,553.4 474.6,544.0 490.3,534.1 505.9,523.6 521.6,512.5 537.2,500.7 552.9,488.2 568.5,474.9 584.2,460.9 599.8,446.1 615.5,430.4 631.1,413.8 646.8,396.3 662.4,377.7 678.1,358.1 693.7,337.4 709.4,315.5 725.1,292.4 740.7,268.0 756.4,242.2 772.0,214.9 787.7,186.1 803.3,155.7 819.0,123.7 834.6,89.8 850.3,54.0 856.1,40.0 " fill="none"/>
    <polyline class="line-axis stroke-dashed" opacity="1" points="5.0,675.0 20.7,673.4 36.3,671.7 52.0,669.9 67.6,667.9 83.3,665.8 98.9,663.4 114.6,660.9 130.2,658.1 145.9,655.2 161.5,651.9 177.2,648.5 192.8,644.7 208.5,640.6 224.1,636.2 239.8,631.5 255.5,627.0 271.1,622.2 286.8,617.0 302.4,611.6 318.1,605.8 333.7,599.6 349.4,593.0 365.0,586.0 380.7,578.6 396.3,570.6 412.0,562.2 427.6,553.3 443.3,543.8 458.9,533.7 474.6,523.0 490.3,511.7 505.9,499.7 521.6,487.0 537.2,473.5 552.9,459.2 568.5,444.1 584.2,428.0 599.8,411.1 615.5,393.2 631.1,374.2 646.8,354.2 662.4,333.0 678.1,310.6 693.7,286.9 709.4,261.9 725.1,235.4 740.7,207.5 756.4,178.0 772.0,146.9 787.7,114.0 803.3,79.3 819.0,42.6 820.0,40.0 " fill="none"/>
    <polyline class="line-axis stroke-dashed" opacity="1" points="5.0,673.0 20.7,671.2 36.3,669.3 52.0,667.3 67.6,665.0 83.3,662.6 98.9,660.0 114.6,657.1 130.2,654.0 145.9,650.7 161.5,647.1 177.2,643.1 192.8,638.9 208.5,634.3 224.1,629.4 239.8,624.0 255.5,619.0 271.1,613.6 286.8,607.8 302.4,601.7 318.1,595.1 333.7,588.2 349.4,580.8 365.0,572.9 380.7,564.5 396.3,555.6 412.0,546.1 427.6,536.1 443.3,525.4 458.9,514.1 474.6,502.0 490.3,489.3 505.9,475.8 521.6,461.4 537.2,446.3 552.9,430.2 568.5,413.2 584.2,395.2 599.8,376.1 615.5,355.9 631.1,334.6 646.8,312.1 662.4,288.2 678.1,263.0 693.7,236.4 709.4,208.2 725.1,178.5 740.7,147.1 756.4,113.9 772.0,78.9 787.7,41.9 788.4,40.0 " fill="none"/>
    <polyline class="line-axis" opacity="0.6" points="5.0,671.0 20.7,669.0 36.3,666.9 52.0,664.6 67.6,662.2 83.3,659.5 98.9,656.5 114.6,653.4 130.2,649.9 145.9,646.2 161.5,642.2 177.2,637.8 192.8,633.1 208.5,628.0 224.1,622.5 239.8,616.6 255.5,610.9 271.1,605.0 286.8,598.6 302.4,591.7 318.1,584.5 333.7,576.7 349.4,568.5 365.0,559.8 380.7,550.4 396.3,540.5 412.0,530.0 427.6,518.8 443.3,507.0 458.9,494.4 474.6,481.0 490.3,466.9 505.9,451.9 521.6,435.9 537.2,419.1 552.9,401.2 568.5,382.3 584.2,362.3 599.8,341.1 615.5,318.7 631.1,295.0 646.8,270.0 662.4,243.5 678.1,215.5 693.7,185.9 709.4,154.6 725.1,121.6 740.7,86.7 756.4,49.8 760.3,40.0 " fill="none"/>
  </g>
  <g class="info opacity-transition"></g>
  <g class="overlay opacity-transition"></g>
</svg>