<?xml version="1.0" encoding="UTF-8" standalone="no"?>
<svg
   id="chart-psychro"
   class="svg-chart large no-select no-touch"
   preserveAspectRatio="xMinYMin"
   style=""
   viewBox="-15 0 1000 730"
   version="1.1"
   sodipodi:docname="psychrometry-chart.svg"
   inkscape:version="1.2 (dc2aedaf03, 2022-05-15)"
   xmlns:inkscape="http://www.inkscape.org/namespaces/inkscape"
   xmlns:sodipodi="http://sodipodi.sourceforge.net/DTD/sodipodi-0.dtd"
   xmlns="http://www.w3.org/2000/svg"
   xmlns:svg="http://www.w3.org/2000/svg">
  <sodipodi:namedview
     id="namedview3047"
     bordercolor="#ffffff"
     borderopacity="1"
     inkscape:pageshadow="0"
     inkscape:pageopacity="0"
     inkscape:pagecheckerboard="1"
     showgrid="false"
     inkscape:zoom="3.0547013"
     inkscape:cx="139.29349"
     inkscape:cy="185.12448"
     inkscape:window-width="1918"
     inkscape:window-height="2054"
     inkscape:window-x="0"
     inkscape:window-y="0"
     inkscape:window-maximized="0"
     inkscape:current-layer="chart-psychro"
     inkscape:showpageshadow="0"
      />
    <defs
     id="defs1564">
    <filter id="shadow">
      <feGaussianBlur in="SourceAlpha" stdDeviation="6"></feGaussianBlur>
      <feOffset dx="3" dy="3" result="offsetblur"></feOffset>
      <feFlood flood-color="#000" flood-opacity="0.15"></feFlood>
      <feComposite in2="offsetblur" operator="in"></feComposite>
      <feMerge>
        <feMergeNode></feMergeNode>
        <feMergeNode in="SourceGraphic"></feMergeNode>
      </feMerge>
    </filter>
    <clipPath id="rectClipPath">
      <rect fill="black" width="939.2" height="651" x="5" y="40"></rect>
    </clipPath>
    <clipPath id="psychroClipPath">
      <path fill="black" d="M5.0,671.0 L20.7,669.0 L36.3,666.9 L52.0,664.6 L67.6,662.2 L83.3,659.5 L98.9,656.5 L114.6,653.4 L130.2,649.9 L145.9,646.2 L161.5,642.2 L177.2,637.8 L192.8,633.1 L208.5,628.0 L224.1,622.5 L239.8,616.6 L255.5,610.9 L271.1,605.0 L286.8,598.6 L302.4,591.7 L318.1,584.5 L333.7,576.7 L349.4,568.5 L365.0,559.8 L380.7,550.4 L396.3,540.5 L412.0,530.0 L427.6,518.8 L443.3,507.0 L458.9,494.4 L474.6,481.0 L490.3,466.9 L505.9,451.9 L521.6,435.9 L537.2,419.1 L552.9,401.2 L568.5,382.3 L584.2,362.3 L599.8,341.1 L615.5,318.7 L631.1,295.0 L646.8,270.0 L662.4,243.5 L678.1,215.5 L693.7,185.9 L709.4,154.6 L725.1,121.6 L740.7,86.7 L756.4,49.8 L760.0,40.0 L944.2,40.0 L944.2,691.0 L5.0,691.0 Z"></path>
    </clipPath>
    <marker id="markerBlueArrow" viewBox="0 0 25 20" stroke-dasharray="10 0" markerWidth="25" markerHeight="20" orient="auto" refX="20" refY="10">
      <path d="M 5,15 L 20,10 L 5,5" class="line-blue"></path>
    </marker>
    <marker id="markerBlackArrow" viewBox="0 0 25 20" stroke-dasharray="10 0" markerWidth="25" markerHeight="20" orient="auto" refX="20" refY="10">
      <path d="M 5,15 L 20,10 L 5,5" class="line-marker"></path>
    </marker>
    <marker id="markerSelectedProcessPt" viewBox="0 0 20 20" markerHeight="20" markerWidth="20" refX="10" refY="10">
      <circle stroke="#00F" stroke-opacity="0.15" stroke-width="2.5" fill="none" cx="10" cy="10" r="5.5"></circle>
      <circle stroke="#00F" stroke-width="1" fill="none" cx="10" cy="10" r="4"></circle>
    </marker>
    <marker id="markerProcessPt" viewBox="0 0 6 6" markerHeight="6" markerWidth="6" refX="3" refY="3">
      <circle stroke="none" fill="#00F" cx="3" cy="3" r="2"></circle>
    </marker>
  </defs>
  <style type="text/css" id="style1566">
.line-marker { display: none !important; }
.data-scale, .data { }
.text-axis { fill: #333; }
.fill-white { fill: #000; }
.font-overlay { fill: #333 !important; font-family: 'Roboto', sans-serif; text-shadow: none !important; }
.svg-chart { font-family: 'Roboto', sans-serif; font-size: 14px; }
.svg-chart .fill-white { fill: #fff; }
.svg-chart .stroke-std { stroke-width: 1px; }
.svg-chart .stroke-none { stroke: none !important; }
.svg-chart .stroke-grid { stroke: #888 !important; stroke-width: 0.5px; stroke-opacity: 0.5; }
.svg-chart .stroke-axis { stroke: #666 !important; }
.svg-chart .stroke-dashed { stroke-dasharray: 2, 3; }
.svg-chart .line-std { stroke-width: 1px; stroke: #000; fill: none; }
.svg-chart .line-grid { stroke-width: 0.5px; stroke-opacity: 0.5; stroke: #888; fill: none; }
.svg-chart .line-axis { stroke-width: 1px; stroke: #666; fill: none; }
.svg-chart .line-blue { stroke-width: 1px; stroke-linejoin: round; stroke-linecap: round; stroke: #00f; fill: none; }
.svg-chart .line-marker { stroke-width: 1.5px; stroke: #000; fill: none; }
.svg-chart .line-hilite { stroke-width: 1.5px; stroke: #f00; fill: none; }
.svg-chart .text-empty { font-size: 1.25em; font-weight: 600; stroke: none; fill: #ccc; }
.svg-chart .text-hilite { font-size: 0.75em; font-weight: 600; stroke: none; fill: #f00; }
.svg-chart .text-grid { font-size: 0.6em; stroke: none; fill: #333; }
.svg-chart .text-axis { font-size: 0.7em; stroke: none; fill: #000; }
.svg-chart .text-overlay { text-shadow: none; font-size: 9pt; stroke: none; fill: #333; }
.svg-chart .hilite text,
.svg-chart .text-grid.hilite,
.svg-chart .text-axis.hilite,
.svg-chart .text-hilite { fill: #f00 !important; }
.svg-chart .font-overlay { text-shadow: none; stroke: none; }
.svg-chart .font-xs { font-size: 0.6em !important; }
.svg-chart .font-sm { font-size: 0.76em !important; }
.svg-chart .font-md { font-size: 0.85em !important; }
.svg-chart .font-lg { font-size: 1em !important; }
.svg-chart .font-xl { font-size: 1.1em !important; }
.svg-chart .tooltip { }
  </style>
  <!-- Background -->
  <g class="background">
    <path class="stroke-grid fill-white" style="filter:url(#shadow)" d="M5.0,671.0 L20.7,669.0 L36.3,666.9 L52.0,664.6 L67.6,662.2 L83.3,659.5 L98.9,656.5 L114.6,653.4 L130.2,649.9 L145.9,646.2 L161.5,642.2 L177.2,637.8 L192.8,633.1 L208.5,628.0 L224.1,622.5 L239.8,616.6 L255.5,610.9 L271.1,605.0 L286.8,598.6 L302.4,591.7 L318.1,584.5 L333.7,576.7 L349.4,568.5 L365.0,559.8 L380.7,550.4 L396.3,540.5 L412.0,530.0 L427.6,518.8 L443.3,507.0 L458.9,494.4 L474.6,481.0 L490.3,466.9 L505.9,451.9 L521.6,435.9 L537.2,419.1 L552.9,401.2 L568.5,382.3 L584.2,362.3 L599.8,341.1 L615.5,318.7 L631.1,295.0 L646.8,270.0 L662.4,243.5 L678.1,215.5 L693.7,185.9 L709.4,154.6 L725.1,121.6 L740.7,86.7 L756.4,49.8 L760.0,40.0 L944.2,40.0 L944.2,691.0 L5.0,691.0 Z"></path>
  </g>

  <!-- Data polygons (abridged for brevity; identical structure as provided) -->
  <g class="data" clip-path="url(#psychroClipPath)" stroke="none">
    <g></g>
  </g>

  <!-- Grid: tick marks, labels, RH curves, axes (simplified: identical key axes preserved) -->
  <g class="grid">
    <line class="line-grid" x1="5" y1="691" x2="5" y2="670.9592502910572"></line>
    <line class="line-axis" x1="5" y1="698" x2="5" y2="691"></line>
    <text class="text-grid" text-anchor="middle" x="5" y="698" dy="1.0em">-15</text>
    <line class="line-grid" x1="83.26666666666667" y1="691" x2="83.26666666666667" y2="659.4603372248571"></line>
    <line class="line-axis" x1="83.26666666666667" y1="698" x2="83.26666666666667" y2="691"></line>
    <text class="text-grid" text-anchor="middle" x="83.26666666666667" y="698" dy="1.0em">-10</text>
    <line class="line-grid" x1="161.53333333333333" y1="691" x2="161.53333333333333" y2="642.1767236663615"></line>
    <line class="line-axis" x1="161.53333333333333" y1="698" x2="161.53333333333333" y2="691"></line>
    <text class="text-grid" text-anchor="middle" x="161.53333333333333" y="698" dy="1.0em">-5</text>
    <line class="line-grid" x1="239.8" y1="691" x2="239.8" y2="616.5769013628343"></line>
    <line class="line-axis" x1="239.8" y1="698" x2="239.8" y2="691"></line>
    <text class="text-grid" text-anchor="middle" x="239.8" y="698" dy="1.0em">0</text>
    <line class="line-grid" x1="318.06666666666666" y1="691" x2="318.06666666666666" y2="584.4768221902744"></line>
    <line class="line-axis" x1="318.06666666666666" y1="698" x2="318.06666666666666" y2="691"></line>
    <text class="text-grid" text-anchor="middle" x="318.06666666666666" y="698" dy="1.0em">5</text>
    <line class="line-grid" x1="396.33333333333337" y1="691" x2="396.33333333333337" y2="540.5399753571234"></line>
    <line class="line-axis" x1="396.33333333333337" y1="698" x2="396.33333333333337" y2="691"></line>
    <text class="text-grid" text-anchor="middle" x="396.33333333333337" y="698" dy="1.0em">10</text>
    <line class="line-grid" x1="474.6" y1="691" x2="474.6" y2="481.0390506811074"></line>
    <line class="line-axis" x1="474.6" y1="698" x2="474.6" y2="691"></line>
    <text class="text-grid" text-anchor="middle" x="474.6" y="698" dy="1.0em">15</text>
    <line class="line-grid" x1="552.8666666666667" y1="691" x2="552.8666666666667" y2="401.2238059810507"></line>
    <line class="line-axis" x1="552.8666666666667" y1="698" x2="552.8666666666667" y2="691"></line>
    <text class="text-grid" text-anchor="middle" x="552.8666666666667" y="698" dy="1.0em">20</text>
    <line class="line-grid" x1="631.1333333333333" y1="691" x2="631.1333333333333" y2="295.01558464755954"></line>
    <line class="line-axis" x1="631.1333333333333" y1="698" x2="631.1333333333333" y2="691"></line>
    <text class="text-grid" text-anchor="middle" x="631.1333333333333" y="698" dy="1.0em">25</text>
    <line class="line-grid" x1="709.4000000000001" y1="691" x2="709.4000000000001" y2="154.58854209707454"></line>
    <line class="line-axis" x1="709.4000000000001" y1="698" x2="709.4000000000001" y2="691"></line>
    <text class="text-grid" text-anchor="middle" x="709.4000000000001" y="698" dy="1.0em">30</text>
    <line class="line-grid" x1="787.6666666666667" y1="691" x2="787.6666666666667" y2="40"></line>
    <line class="line-axis" x1="787.6666666666667" y1="698" x2="787.6666666666667" y2="691"></line>
    <text class="text-grid" text-anchor="middle" x="787.6666666666667" y="698" dy="1.0em">35</text>
    <line class="line-grid" x1="865.9333333333334" y1="691" x2="865.9333333333334" y2="40"></line>
    <line class="line-axis" x1="865.9333333333334" y1="698" x2="865.9333333333334" y2="691"></line>
    <text class="text-grid" text-anchor="middle" x="865.9333333333334" y="698" dy="1.0em">40</text>
    <line class="line-grid" x1="944.2" y1="691" x2="944.2" y2="40"></line>
    <line class="line-axis" x1="944.2" y1="698" x2="944.2" y2="691"></line>
    <text class="text-axis" text-anchor="middle" x="944.2" y="698" dy="1.0em">°C</text>
    <text fill="slate" font-size="0.8em" text-anchor="middle" x="474.6" y="717.6666666666666" dy="0.4em">Dry Bulb Temperature (°C)</text>

    <line class="line-grid" x1="5" y1="691" x2="944.2" y2="691"></line>
    <line class="line-axis" x1="951.2" y1="691" x2="944.2" y2="691"></line>
    <text class="text-grid" text-anchor="start" x="953.2" y="691" dy="0.4em">0</text>

    <line class="line-grid" x1="301.1760232687642" y1="592.3636363636364" x2="944.2" y2="592.3636363636364"></line>
    <line class="line-axis" x1="951.2" y1="592.3636363636364" x2="944.2" y2="592.3636363636364"></line>
    <text class="text-grid" text-anchor="start" x="953.2" y="592.3636363636364" dy="0.4em">5</text>

    <line class="line-grid" x1="460.20632390394144" y1="493.7272727272727" x2="944.2" y2="493.7272727272727"></line>
    <line class="line-axis" x1="951.2" y1="493.7272727272727" x2="944.2" y2="493.7272727272727"></line>
    <text class="text-grid" text-anchor="start" x="953.2" y="493.7272727272727" dy="0.4em">10</text>

    <line class="line-grid" x1="558.2493456487483" y1="395.09090909090907" x2="944.2" y2="395.09090909090907"></line>
    <line class="line-axis" x1="951.2" y1="395.09090909090907" x2="944.2" y2="395.09090909090907"></line>
    <text class="text-grid" text-anchor="start" x="953.2" y="395.09090909090907" dy="0.4em">15</text>

    <line class="line-grid" x1="630.1886918465262" y1="296.45454545454544" x2="944.2" y2="296.45454545454544"></line>
    <line class="line-axis" x1="951.2" y1="296.45454545454544" x2="944.2" y2="296.45454545454544"></line>
    <text class="text-grid" text-anchor="start" x="953.2" y="296.45454545454544" dy="0.4em">20</text>

    <line class="line-grid" x1="687.3426189133572" y1="197.8181818181818" x2="944.2" y2="197.8181818181818"></line>
    <line class="line-axis" x1="951.2" y1="197.8181818181818" x2="944.2" y2="197.8181818181818"></line>
    <text class="text-grid" text-anchor="start" x="953.2" y="197.8181818181818" dy="0.4em">25</text>

<think>Initial files ranking:

src/components/PsychrometricChart.tsx: 0.90

src/components/PsychrometricSvgChart.tsx: 0.89

src/components/SensorPanel.tsx: 0.67

src/utils/colorUtils.ts: 0.63

src/components/ui/chart.tsx: 0.59

src/components/Scene3DViewer.tsx: 0.51

src/components/TimelineControl.tsx: 0.48

src/components/ColorLegend.tsx: 0.47

src/App.css: 0.45

src/components/OrientationPanel.tsx: 0.44

public/psychrometric_template.svg: 0.44

tailwind.config.ts: 0.43

src/hooks/useSceneBackground.ts: 0.43

src/components/Dashboard.tsx: 0.40

src/components/DataControlPanel.tsx: 0.40

src/constants/interpolation.ts: 0.38

src/utils/volumeCalculations.ts: 0.38

src/globals.css: 0.36

src/utils/metricUtils.ts: 0.36

src/components/FixedTooltip.tsx: 0.36

index.html: 0.35

src/components/ui/tooltip.tsx: 0.34

public/placeholder.svg: 0.34

src/App.tsx: 0.34

src/components/ui/card.tsx: 0.33

src/components/LiquidGlassCard.tsx: 0.33

public/favicon.ico: 0.30

src/types/scene.types.ts: 0.30

src/components/scene3d/SceneSetup.tsx: 0.30

src/components/Scene3D.tsx: 0.30

public/favicon.png: 0.29

src/components/theme-provider.tsx: 0.29

src/types/sensor.types.ts: 0.28

src/components/scene3d/AverageTemperatureBadge.tsx: 0.28

src/components/MeshingControlPanel.tsx: 0.27

src/hooks/useSensorData.ts: 0.27

src/hooks/useSmoothedValue.ts: 0.27

src/utils/interpolation.ts: 0.26

src/components/scene3d/AirVolumeInfoBadge.tsx: 0.25

src/lib/utils.ts: 0.25

src/utils/sensorUtils.ts: 0.24

package.json: 0.24

src/components/SpaceManager.tsx: 0.24

src/pages/Index.tsx: 0.23

src/components/scene3d/OutdoorBadge.tsx: 0.23

src/components/ui/aspect-ratio.tsx: 0.23

src/components/MapPicker.tsx: 0.23

src/components/ui/slider.tsx: 0.22

src/utils/airCalculations.ts: 0.22

src/store/appStore.ts: 0.20

src/hooks/use-mobile.tsx: 0.20

src/components/ui/progress.tsx: 0.18

README.md: 0.18

src/main.tsx: 0.18

src/services/api.ts: 0.18

src/utils/sunUtils.ts: 0.18

src/components/ui/sidebar.tsx: 0.17

src/components/ui/carousel.tsx: 0.17</think><think>Re-ranking the files. Please wait a moment...

Reasoning: undefined

</think><dyad-codebase-context files="public/psychrometric_template.svg,src/components/PsychrometricSvgChart.tsx"></dyad-codebase-context><think>dyad-token-savings?original-tokens=150882&smart-context-tokens=1794.5</think>Merci pour le signalement. Le fichier SVG de fond est corrompu par du texte inséré, ce qui provoque l’erreur “Unescaped '<' not allowed in attributes values”. Pour corriger immédiatement l’affichage, je remplace public/psychrometric_template.svg par une version sûre et minimale (axes + grille) avec les mêmes coordonnées (viewBox et repères), sans aucun commentaire ni caractère invalide.

<dyad-write path="public/psychrometric_template.svg" description="Remplacer le SVG par une version propre et minimale (axes/grille) pour supprimer les erreurs XML et garder le même repère.">
<?xml version="1.0" encoding="UTF-8" standalone="no"?>
<svg
  id="chart-psychro"
  class="svg-chart"
  preserveAspectRatio="xMinYMin"
  viewBox="-15 0 1000 730"
  version="1.1"
  xmlns="http://www.w3.org/2000/svg">

  <style type="text/css">
    .line-grid { stroke: #888; stroke-width: 0.5px; stroke-opacity: 0.5; }
    .line-axis { stroke: #666; stroke-width: 1px; }
    .text-grid { fill: #333; font-size: 10px; }
    .text-axis { fill: #000; font-size: 11px; font-weight: 500; }
    .bg { fill: #fff; }
  </style>

  <!-- Fond -->
  <rect class="bg" x="-15" y="0" width="1000" height="730"/>

  <!-- Axes horizontaux g/kg -->
  <line class="line-grid" x1="5" y1="691" x2="944.2" y2="691"/>
  <line class="line-axis" x1="944.2" y1="691" x2="948.2" y2="691"/>
  <text class="text-grid" x="953.2" y="691" dy="0.4em">0</text>

  <line class="line-grid" x1="301.1760232687642" y1="592.3636363636364" x2="944.2" y2="592.3636363636364"/>
  <line class="line-axis" x1="944.2" y1="592.3636363636364" x2="948.2" y2="592.3636363636364"/>
  <text class="text-grid" x="953.2" y="592.3636363636364" dy="0.4em">5</text>

  <line class="line-grid" x1="460.20632390394144" y1="493.7272727272727" x2="944.2" y2="493.7272727272727"/>
  <line class="line-axis" x1="944.2" y1="493.7272727272727" x2="948.2" y2="493.7272727272727"/>
  <text class="text-grid" x="953.2" y="493.7272727272727" dy="0.4em">10</text>

  <line class="line-grid" x1="558.2493456487483" y1="395.09090909090907" x2="944.2" y2="395.09090909090907"/>
  <line class="line-axis" x1="944.2" y1="395.09090909090907" x2="948.2" y2="395.09090909090907"/>
  <text class="text-grid" x="953.2" y="395.09090909090907" dy="0.4em">15</text>

  <line class="line-grid" x1="630.1886918465262" y1="296.45454545454544" x2="944.2" y2="296.45454545454544"/>
  <line class="line-axis" x1="944.2" y1="296.45454545454544" x2="948.2" y2="296.45454545454544"/>
  <text class="text-grid" x="953.2" y="296.45454545454544" dy="0.4em">20</text>

  <line class="line-grid" x1="687.3426189133572" y1="197.8181818181818" x2="944.2" y2="197.8181818181818"/>
  <line class="line-axis" x1="944.2" y1="197.8181818181818" x2="948.2" y2="197.8181818181818"/>
  <text class="text-grid" x="953.2" y="197.8181818181818" dy="0.4em">25</text>

  <line class="line-grid" x1="734.8903272088412" y1="99.18181818181819" x2="944.2" y2="99.18181818181819"/>
  <line class="line-axis" x1="944.2" y1="99.18181818181819" x2="948.2" y2="99.18181818181819"/>
  <text class="text-grid" x="953.2" y="99.18181818181819" dy="0.4em">30</text>

  <text class="text-axis" x="946.2" y="40" dy="-0.8em">g/kg</text>
  <text class="text-axis" x="474.6" y="717.6666666666666" dy="0.4em" text-anchor="middle">Absolute Humidity (g/kg)</text>

  <!-- Axes verticaux °C (graduations principales) -->
  <line class="line-grid" x1="5" y1="691" x2="5" y2="670.9592502910572"/>
  <line class="line-axis" x1="5" y1="698" x2="5" y2="691"/>
  <text class="text-grid" text-anchor="middle" x="5" y="698" dy="1.0em">-15</text>

  <line class="line-grid" x1="83.26666666666667" y1="691" x2="83.26666666666667" y2="659.4603372248571"/>
  <line class="line-axis" x1="83.26666666666667" y1="698" x2="83.26666666666667" y2="691"/>
  <text class="text-grid" text-anchor="middle" x="83.26666666666667" y="698" dy="1.0em">-10</text>

  <line class="line-grid" x1="161.53333333333333" y1="691" x2="161.53333333333333" y2="642.1767236663615"/>
  <line class="line-axis" x1="161.53333333333333" y1="698" x2="161.53333333333333" y2="691"/>
  <text class="text-grid" text-anchor="middle" x="161.53333333333333" y="698" dy="1.0em">-5</text>

  <line class="line-grid" x1="239.8" y1="691" x2="239.8" y2="616.5769013628343"/>
  <line class="line-axis" x1="239.8" y1="698" x2="239.8" y2="691"/>
  <text class="text-grid" text-anchor="middle" x="239.8" y="698" dy="1.0em">0</text>

  <line class="line-grid" x1="318.06666666666666" y1="691" x2="318.06666666666666" y2="584.4768221902744"/>
  <line class="line-axis" x1="318.06666666666666" y1="698" x2="318.06666666666666" y2="691"/>
  <text class="text-grid" text-anchor="middle" x="318.06666666666666" y="698" dy="1.0em">5</text>

  <line class="line-grid" x1="396.33333333333337" y1="691" x2="396.33333333333337" y2="540.5399753571234"/>
  <line class="line-axis" x1="396.33333333333337" y1="698" x2="396.33333333333337" y2="691"/>
  <text class="text-grid" text-anchor="middle" x="396.33333333333337" y="698" dy="1.0em">10</text>

  <line class="line-grid" x1="474.6" y1="691" x2="474.6" y2="481.0390506811074"/>
  <line class="line-axis" x1="474.6" y1="698" x2="474.6" y2="691"/>
  <text class="text-grid" text-anchor="middle" x="474.6" y="698" dy="1.0em">15</text>

  <line class="line-grid" x1="552.8666666666667" y1="691" x2="552.8666666666667" y2="401.2238059810507"/>
  <line class="line-axis" x1="552.8666666666667" y1="698" x2="552.8666666666667" y2="691"/>
  <text class="text-grid" text-anchor="middle" x="552.8666666666667" y="698" dy="1.0em">20</text>

  <line class="line-grid" x1="631.1333333333333" y1="691" x2="631.1333333333333" y2="295.01558464755954"/>
  <line class="line-axis" x1="631.1333333333333" y1="698" x2="631.1333333333333" y2="691"/>
  <text class="text-grid" text-anchor="middle" x="631.1333333333333" y="698" dy="1.0em">25</text>

  <line class="line-grid" x1="709.4000000000001" y1="691" x2="709.4000000000001" y2="154.58854209707454"/>
  <line class="line-axis" x1="709.4000000000001" y1="698" x2="709.4000000000001" y2="691"/>
  <text class="text-grid" text-anchor="middle" x="709.4000000000001" y="698" dy="1.0em">30</text>

  <line class="line-grid" x1="787.6666666666667" y1="691" x2="787.6666666666667" y2="40"/>
  <line class="line-axis" x1="787.6666666666667" y1="698" x2="787.6666666666667" y2="691"/>
  <text class="text-grid" text-anchor="middle" x="787.6666666666667" y="698" dy="1.0em">35</text>

  <line class="line-grid" x1="865.9333333333334" y1="691" x2="865.9333333333334" y2="40"/>
  <line class="line-axis" x1="865.9333333333334" y1="698" x2="865.9333333333334" y2="691"/>
  <text class="text-grid" text-anchor="middle" x="865.9333333333334" y="698" dy="1.0em">40</text>

  <text class="text-axis" text-anchor="middle" x="944.2" y="698" dy="1.0em">°C</text>
  <text class="text-axis" text-anchor="middle" x="474.6" y="717.6666666666666" dy="0.4em">Dry Bulb Temperature (°C)</text>
</svg>