<svg xmlns:inkscape="http://www.inkscape.org/namespaces/inkscape" xmlns:sodipodi="http://sodipodi.sourceforge.net/DTD/sodipodi-0.dtd" xmlns="http://www.w3.org/2000/svg" xmlns:svg="http://www.w3.org/2000/svg" id="chart-psychro" class="svg-chart large no-select no-touch" preserveAspectRatio="xMinYMin" style="" viewBox="-15 0 1000 730" version="1.1" sodipodi:docname="psychrometry-chart.svg" inkscape:version="1.2 (dc2aedaf03, 2022-05-15)">
  <sodipodi:namedview id="namedview3047" bordercolor="#ffffff" borderopacity="1" inkscape:pageshadow="0" inkscape:pageopacity="0" inkscape:pagecheckerboard="1" showgrid="false" inkscape:zoom="3.0547013" inkscape:cx="139.29349" inkscape:cy="185.12448" inkscape:window-width="1918" inkscape:window-height="2054" inkscape:window-x="0" inkscape:window-y="0" inkscape:window-maximized="0" inkscape:current-layer="chart-psychro" inkscape:showpageshadow="0"/>
    <defs id="defs1564">
    <filter id="shadow">
      <feGaussianBlur in="SourceAlpha" stdDeviation="6"/>
      <feOffset dx="3" dy="3" result="offsetblur"/>
      <feFlood flood-color="#000" flood-opacity="0.15"/>
      <feComposite in2="offsetblur" operator="in"/>
      <feMerge>
        <feMergeNode/>
        <feMergeNode in="SourceGraphic"/>
      </feMerge>
    </filter>
    <clipPath id="rectClipPath">
      <rect fill="black" width="939.2" height="651" x="5" y="40"/>
    </clipPath>
    <clipPath id="psychroClipPath">
      <path fill="black" d="M5.0,671.0 L20.7,669.0 L36.3,666.9 L52.0,664.6 L67.6,662.2 L83.3,659.5 L98.9,656.5 L114.6,653.4 L130.2,649.9 L145.9,646.2 L161.5,642.2 L177.2,637.8 L192.8,633.1 L208.5,628.0 L224.1,622.5 L239.8,616.6 L255.5,610.9 L271.1,605.0 L286.8,598.6 L302.4,591.7 L318.1,584.5 L333.7,576.7 L349.4,568.5 L365.0,559.8 L380.7,550.4 L396.3,540.5 L412.0,530.0 L427.6,518.8 L443.3,507.0 L458.9,494.4 L474.6,481.0 L490.3,466.9 L505.9,451.9 L521.6,435.9 L537.2,419.1 L552.9,401.2 L568.5,382.3 L584.2,362.3 L599.8,341.1 L615.5,318.7 L631.1,295.0 L646.8,270.0 L662.4,243.5 L678.1,215.5 L693.7,185.9 L709.4,154.6 L725.1,121.6 L740.7,86.7 L756.4,49.8 L760.0,40.0 L944.2,40.0 L944.2,691.0 L5.0,691.0 Z"/>
    </clipPath>
    <marker id="markerBlueArrow" viewBox="0 0 25 20" stroke-dasharray="10 0" markerWidth="25" markerHeight="20" orient="auto" refX="20" refY="10">
      <path d="M 5,15 L 20,10 L 5,5" class="line-blue"/>
    </marker>
    <marker id="markerBlackArrow" viewBox="0 0 25 20" stroke-dasharray="10 0" markerWidth="25" markerHeight="20" orient="auto" refX="20" refY="10">
      <path d="M 5,15 L 20,10 L 5,5" class="line-marker"/>
    </marker>
    <marker id="markerSelectedProcessPt" viewBox="0 0 20 20" markerHeight="20" markerWidth="20" refX="10" refY="10">
      <circle stroke="#00F" stroke-opacity="0.15" stroke-width="2.5" fill="none" cx="10" cy="10" r="5.5"/>
      <circle stroke="#00F" stroke-width="1" fill="none" cx="10" cy="10" r="4"/>
    </marker>
    <marker id="markerProcessPt" viewBox="0 0 6 6" markerHeight="6" markerWidth="6" refX="3" refY="3">
      <circle stroke="none" fill="#00F" cx="3" cy="3" r="2"/>
    </marker>
  </defs>
  <style type="text/css" id="style1566">
.line-marker {
  display: none !important;
}
.data-scale, .data {
  /* Suppression du filtre invert pour éviter les conflits de couleurs 
  filter: hue-rotate(-90deg);*/
}
.text-axis {
  fill: #333; /* Changement en couleur foncée pour un thème clair */
}
.fill-white {
  fill: #000; /* Correction de la propriété, en noir pour une meilleure visibilité */
}
.font-overlay {
  fill: #333 !important; /* Texte foncé */
  font-family: 'Roboto', sans-serif; /* Utilisation de Roboto */
  /*font-size: 0.75em;*/
  text-shadow: none !important;
}
.svg-chart {
  font-family: 'Roboto', sans-serif;
  font-size: 14px;
}
.svg-chart .fill-white {
  fill: #fff; /* Assurez-vous que cela ne soit utilisé que sur un fond foncé */
}
.svg-chart .stroke-std {
  stroke-width: 1px;
}
.svg-chart .stroke-none {
  stroke: none !important;
}
.svg-chart .stroke-grid {
  stroke: #888 !important;
  stroke-width: 0.5px;
  stroke-opacity: 0.5;
}
.svg-chart .stroke-axis {
  stroke: #666 !important;
}
.svg-chart .stroke-dashed {
  stroke-dasharray: 2, 3;
}
.svg-chart .line-std {
  stroke-width: 1px;
  stroke: #000;
  fill: none;
}
.svg-chart .line-grid {
  stroke-width: 0.5px;
  stroke-opacity: 0.5;
  stroke: #888;
  fill: none;
}
.svg-chart .line-axis {
  stroke-width: 1px;
  stroke: #666;
  fill: none;
}
.svg-chart .line-blue {
  stroke-width: 1px;
  stroke-linejoin: round;
  stroke-linecap: round;
  stroke: #00f;
  fill: none;
}
.svg-chart .line-marker {
  stroke-width: 1.5px;
  stroke: #000;
  fill: none;
}
.svg-chart .line-hilite {
  stroke-width: 1.5px;
  stroke: #f00; /* Texte de surbrillance en rouge */
  fill: none;
}
.svg-chart .text-empty {
  font-size: 1.25em;
  font-weight: 600;
  stroke: none;
  fill: #ccc;
}
.svg-chart .text-hilite {
  font-size: 0.75em;
  font-weight: 600;
  stroke: none;
  fill: #f00; /* Texte de surbrillance en rouge */
}
.svg-chart .text-grid {
  font-size: 0.6em;
  stroke: none;
  fill: #333; /* Changement à une couleur foncée */
}
.svg-chart .text-axis {
  font-size: 0.7em;
  stroke: none;
  fill: #000; /* Texte des axes en noir */
}
.svg-chart .text-overlay {
  text-shadow: none; /* Suppression de l'ombre pour améliorer la lisibilité */
  font-size: 9pt;
  stroke: none;
  fill: #333; /* Texte foncé */
}
.svg-chart .hilite text,
.svg-chart .text-grid.hilite,
.svg-chart .text-axis.hilite,
.svg-chart .text-hilite {
  fill: #f00 !important; /* Maintien de la surbrillance en rouge */
}
.svg-chart .font-overlay {
  text-shadow: none;
  stroke: none;
}
.svg-chart .font-xs {
  font-size: 0.6em !important;
}
.svg-chart .font-sm {
  font-size: 0.76em !important;
}
.svg-chart .font-md {
  font-size: 0.85em !important;
}
.svg-chart .font-lg {
  font-size: 1em !important;
}
.svg-chart .font-xl {
  font-size: 1.1em !important;
}
.svg-chart .tooltip {
  /*display: none;*/
}

     </style>
  <g class="background">
    <path class="stroke-grid fill-white" style="filter:url(#shadow)" d="M5.0,671.0 L20.7,669.0 L36.3,666.9 L52.0,664.6 L67.6,662.2 L83.3,659.5 L98.9,656.5 L114.6,653.4 L130.2,649.9 L145.9,646.2 L161.5,642.2 L177.2,637.8 L192.8,633.1 L208.5,628.0 L224.1,622.5 L239.8,616.6 L255.5,610.9 L271.1,605.0 L286.8,598.6 L302.4,591.7 L318.1,584.5 L333.7,576.7 L349.4,568.5 L365.0,559.8 L380.7,550.4 L396.3,540.5 L412.0,530.0 L427.6,518.8 L443.3,507.0 L458.9,494.4 L474.6,481.0 L490.3,466.9 L505.9,451.9 L521.6,435.9 L537.2,419.1 L552.9,401.2 L568.5,382.3 L584.2,362.3 L599.8,341.1 L615.5,318.7 L631.1,295.0 L646.8,270.0 L662.4,243.5 L678.1,215.5 L693.7,185.9 L709.4,154.6 L725.1,121.6 L740.7,86.7 L756.4,49.8 L760.0,40.0 L944.2,40.0 L944.2,691.0 L5.0,691.0 Z"/>
  </g>
  <g class="data" clip-path="url(#psychroClipPath)" stroke="none">
    <g>
      <polygon fill-opacity="1" fill="#E5E5FF" points="147.9,669.3 159.5,669.3 159.5,653.5 147.9,653.5"/>
      <polygon fill-opacity="1" fill="#E3E3FF" points="163.5,669.3 175.2,669.3 175.2,653.5 163.5,653.5"/>
      <polygon fill-opacity="1" fill="#DBDBFF" points="179.2,669.3 190.8,669.3 190.8,653.5 179.2,653.5"/>
      <polygon fill-opacity="1" fill="#DFDFFF" points="194.8,669.3 206.5,669.3 206.5,653.5 194.8,653.5"/>
      <polygon fill-opacity="1" fill="#E0E0FF" points="210.5,669.3 222.1,669.3 222.1,653.5 210.5,653.5"/>
      <polygon fill-opacity="1" fill="#DFDFFF" points="226.1,669.3 237.8,669.3 237.8,653.5 226.1,653.5"/>
      <polygon fill-opacity="1" fill="#E2E2FF" points="241.8,669.3 253.5,669.3 253.5,653.5 241.8,653.5"/>
      <polygon fill-opacity="1" fill="#E2E2FF" points="257.5,669.3 269.1,669.3 269.1,653.5 257.5,653.5"/>
      <polygon fill-opacity="1" fill="#E3E3FF" points="273.1,669.3 284.8,669.3 284.8,653.5 273.1,653.5"/>
      <polygon fill-opacity="1" fill="#E2E2FF" points="288.8,669.3 300.4,669.3 300.4,653.5 288.8,653.5"/>
      <polygon fill-opacity="1" fill="#E4E4FF" points="304.4,669.3 316.1,669.3 316.1,653.5 304.4,653.5"/>
      <polygon fill-opacity="1" fill="#E2E2FF" points="320.1,669.3 331.7,669.3 331.7,653.5 320.1,653.5"/>
      <polygon fill-opacity="1" fill="#E3E3FF" points="335.7,669.3 347.4,669.3 347.4,653.5 335.7,653.5"/>
      <polygon fill-opacity="1" fill="#E5E5FF" points="351.4,669.3 363.0,669.3 363.0,653.5 351.4,653.5"/>
      <polygon fill-opacity="1" fill="#E5E5FF" points="367.0,669.3 378.7,669.3 378.7,653.5 367.0,653.5"/>
      <polygon fill-opacity="1" fill="#E4E4FF" points="507.9,669.3 519.6,669.3 519.6,653.5 507.9,653.5"/>
      <polygon fill-opacity="1" fill="#E2E2FF" points="147.9,649.5 159.5,649.5 159.5,633.8 147.9,633.8"/>
      <polygon fill-opacity="1" fill="#DBDBFF" points="163.5,649.5 175.2,649.5 175.2,633.8 163.5,633.8"/>
      <polygon fill-opacity="1" fill="#D7D7FF" points="179.2,649.5 190.8,649.5 190.8,633.8 179.2,633.8"/>
      <polygon fill-opacity="1" fill="#CBCBFF" points="194.8,649.5 206.5,649.5 206.5,633.8 194.8,633.8"/>
      <polygon fill-opacity="1" fill="#B0B0FF" points="210.5,649.5 222.1,649.5 222.1,633.8 210.5,633.8"/>
      <polygon fill-opacity="1" fill="#B3B3FF" points="226.1,649.5 237.8,649.5 237.8,633.8 226.1,633.8"/>
      <polygon fill-opacity="1" fill="#CCCCFF" points="241.8,649.5 253.5,649.5 253.5,633.8 241.8,633.8"/>
      <polygon fill-opacity="1" fill="#BBBBFF" points="257.5,649.5 269.1,649.5 269.1,633.8 257.5,633.8"/>
      <polygon fill-opacity="1" fill="#C4C4FF" points="273.1,649.5 284.8,649.5 284.8,633.8 273.1,633.8"/>
      <polygon fill-opacity="1" fill="#D3D3FF" points="288.8,649.5 300.4,649.5 300.4,633.8 288.8,633.8"/>
      <polygon fill-opacity="1" fill="#DEDEFF" points="304.4,649.5 316.1,649.5 316.1,633.8 304.4,633.8"/>
      <polygon fill-opacity="1" fill="#D9D9FF" points="320.1,649.5 331.7,649.5 331.7,633.8 320.1,633.8"/>
      <polygon fill-opacity="1" fill="#E2E2FF" points="335.7,649.5 347.4,649.5 347.4,633.8 335.7,633.8"/>
      <polygon fill-opacity="1" fill="#DFDFFF" points="351.4,649.5 363.0,649.5 363.0,633.8 351.4,633.8"/>
      <polygon fill-opacity="1" fill="#E5E5FF" points="367.0,649.5 378.7,649.5 378.7,633.8 367.0,633.8"/>
      <polygon fill-opacity="1" fill="#E4E4FF" points="382.7,649.5 394.3,649.5 394.3,633.8 382.7,633.8"/>
      <polygon fill-opacity="1" fill="#E5E5FF" points="429.6,649.5 441.3,649.5 441.3,633.8 429.6,633.8"/>
      <polygon fill-opacity="1" fill="#E4E4FF" points="445.3,649.5 456.9,649.5 456.9,633.8 445.3,633.8"/>
      <polygon fill-opacity="1" fill="#E5E5FF" points="460.9,649.5 472.6,649.5 472.6,633.8 460.9,633.8"/>
      <polygon fill-opacity="1" fill="#E2E2FF" points="476.6,649.5 488.3,649.5 488.3,633.8 476.6,633.8"/>
      <polygon fill-opacity="1" fill="#E4E4FF" points="492.3,649.5 503.9,649.5 503.9,633.8 492.3,633.8"/>
      <polygon fill-opacity="1" fill="#E4E4FF" points="507.9,649.5 519.6,649.5 519.6,633.8 507.9,633.8"/>
      <polygon fill-opacity="1" fill="#E2E2FF" points="539.2,649.5 550.9,649.5 550.9,633.8 539.2,633.8"/>
      <polygon fill-opacity="1" fill="#E4E4FF" points="194.8,629.8 206.5,629.8 206.5,614.1 194.8,614.1"/>
      <polygon fill-opacity="1" fill="#D7D7FF" points="210.5,629.8 222.1,629.8 222.1,614.1 210.5,614.1"/>
      <polygon fill-opacity="1" fill="#BDBDFF" points="226.1,629.8 237.8,629.8 237.8,614.1 226.1,614.1"/>
      <polygon fill-opacity="1" fill="#9F9FFF" points="241.8,629.8 253.5,629.8 253.5,614.1 241.8,614.1"/>
      <polygon fill-opacity="1" fill="#A9A9FF" points="257.5,629.8 269.1,629.8 269.1,614.1 257.5,614.1"/>
      <polygon fill-opacity="1" fill="#AFAFFF" points="273.1,629.8 284.8,629.8 284.8,614.1 273.1,614.1"/>
      <polygon fill-opacity="1" fill="#A7A7FF" points="288.8,629.8 300.4,629.8 300.4,614.1 288.8,614.1"/>
      <polygon fill-opacity="1" fill="#BABAFF" points="304.4,629.8 316.1,629.8 316.1,614.1 304.4,614.1"/>
      <polygon fill-opacity="1" fill="#C0C0FF" points="320.1,629.8 331.7,629.8 331.7,614.1 320.1,614.1"/>
      <polygon fill-opacity="1" fill="#C3C3FF" points="335.7,629.8 347.4,629.8 347.4,614.1 335.7,614.1"/>
      <polygon fill-opacity="1" fill="#C7C7FF" points="351.4,629.8 363.0,629.8 363.0,614.1 351.4,614.1"/>
      <polygon fill-opacity="1" fill="#D0D0FF" points="367.0,629.8 378.7,629.8 378.7,614.1 367.0,614.1"/>
      <polygon fill-opacity="1" fill="#DBDBFF" points="382.7,629.8 394.3,629.8 394.3,614.1 382.7,614.1"/>
      <polygon fill-opacity="1" fill="#D6D6FF" points="398.3,629.8 410.0,629.8 410.0,614.1 398.3,614.1"/>
      <polygon fill-opacity="1" fill="#DFDFFF" points="414.0,629.8 425.6,629.8 425.6,614.1 414.0,614.1"/>
      <polygon fill-opacity="1" fill="#E2E2FF" points="429.6,629.8 441.3,629.8 441.3,614.1 429.6,614.1"/>
      <polygon fill-opacity="1" fill="#E4E4FF" points="445.3,629.8 456.9,629.8 456.9,614.1 445.3,614.1"/>
      <polygon fill-opacity="1" fill="#E2E2FF" points="460.9,629.8 472.6,629.8 472.6,614.1 460.9,614.1"/>
      <polygon fill-opacity="1" fill="#E0E0FF" points="476.6,629.8 488.3,629.8 488.3,614.1 476.6,614.1"/>
      <polygon fill-opacity="1" fill="#E2E2FF" points="492.3,629.8 503.9,629.8 503.9,614.1 492.3,614.1"/>
      <polygon fill-opacity="1" fill="#E2E2FF" points="507.9,629.8 519.6,629.8 519.6,614.1 507.9,614.1"/>
      <polygon fill-opacity="1" fill="#E3E3FF" points="523.6,629.8 535.2,629.8 535.2,614.1 523.6,614.1"/>
      <polygon fill-opacity="1" fill="#E4E4FF" points="241.8,610.1 253.5,610.1 253.5,594.4 241.8,594.4"/>
      <polygon fill-opacity="1" fill="#9D9DFF" points="257.5,610.1 269.1,610.1 269.1,594.4 257.5,594.4"/>
      <polygon fill-opacity="1" fill="#6767FF" points="273.1,610.1 284.8,610.1 284.8,594.4 273.1,594.4"/>
      <polygon fill-opacity="1" fill="#2929FF" points="288.8,610.1 300.4,610.1 300.4,594.4 288.8,594.4"/>
      <polygon fill-opacity="1" fill="#2525FF" points="304.4,610.1 316.1,610.1 316.1,594.4 304.4,594.4"/>
      <polygon fill-opacity="1" fill="#5050FF" points="320.1,610.1 331.7,610.1 331.7,594.4 320.1,594.4"/>
      <polygon fill-opacity="1" fill="#8080FF" points="335.7,610.1 347.4,610.1 347.4,594.4 335.7,594.4"/>
      <polygon fill-opacity="1" fill="#9A9AFF" points="351.4,610.1 363.0,610.1 363.0,594.4 351.4,594.4"/>
      <polygon fill-opacity="1" fill="#ADADFF" points="367.0,610.1 378.7,610.1 378.7,594.4 367.0,594.4"/>
      <polygon fill-opacity="1" fill="#B8B8FF" points="382.7,610.1 394.3,610.1 394.3,594.4 382.7,594.4"/>
      <polygon fill-opacity="1" fill="#BDBDFF" points="398.3,610.1 410.0,610.1 410.0,594.4 398.3,594.4"/>
      <polygon fill-opacity="1" fill="#CCCCFF" points="414.0,610.1 425.6,610.1 425.6,594.4 414.0,594.4"/>
      <polygon fill-opacity="1" fill="#D3D3FF" points="429.6,610.1 441.3,610.1 441.3,594.4 429.6,594.4"/>
      <polygon fill-opacity="1" fill="#D8D8FF" points="445.3,610.1 456.9,610.1 456.9,594.4 445.3,594.4"/>
      <polygon fill-opacity="1" fill="#D5D5FF" points="460.9,610.1 472.6,610.1 472.6,594.4 460.9,594.4"/>
      <polygon fill-opacity="1" fill="#D8D8FF" points="476.6,610.1 488.3,610.1 488.3,594.4 476.6,594.4"/>
      <polygon fill-opacity="1" fill="#DBDBFF" points="492.3,610.1 503.9,610.1 503.9,594.4 492.3,594.4"/>
      <polygon fill-opacity="1" fill="#E0E0FF" points="507.9,610.1 519.6,610.1 519.6,594.4 507.9,594.4"/>
      <polygon fill-opacity="1" fill="#E5E5FF" points="523.6,610.1 535.2,610.1 535.2,594.4 523.6,594.4"/>
      <polygon fill-opacity="1" fill="#E5E5FF" points="539.2,610.1 550.9,610.1 550.9,594.4 539.2,594.4"/>
      <polygon fill-opacity="1" fill="#E5E5FF" points="554.9,610.1 566.5,610.1 566.5,594.4 554.9,594.4"/>
      <polygon fill-opacity="1" fill="#E4E4FF" points="570.5,610.1 582.2,610.1 582.2,594.4 570.5,594.4"/>
      <polygon fill-opacity="1" fill="#C6C6FF" points="304.4,590.4 316.1,590.4 316.1,574.6 304.4,574.6"/>
      <polygon fill-opacity="1" fill="#6D6DFF" points="320.1,590.4 331.7,590.4 331.7,574.6 320.1,574.6"/>
      <polygon fill-opacity="1" fill="#0000FF" points="335.7,590.4 347.4,590.4 347.4,574.6 335.7,574.6"/>
      <polygon fill-opacity="1" fill="#1212FF" points="351.4,590.4 363.0,590.4 363.0,574.6 351.4,574.6"/>
      <polygon fill-opacity="1" fill="#6D6DFF" points="367.0,590.4 378.7,590.4 378.7,574.6 367.0,574.6"/>
      <polygon fill-opacity="1" fill="#8E8EFF" points="382.7,590.4 394.3,590.4 394.3,574.6 382.7,574.6"/>
      <polygon fill-opacity="1" fill="#9E9EFF" points="398.3,590.4 410.0,590.4 410.0,574.6 398.3,574.6"/>
      <polygon fill-opacity="1" fill="#B0B0FF" points="414.0,590.4 425.6,590.4 425.6,574.6 414.0,574.6"/>
      <polygon fill-opacity="1" fill="#BABAFF" points="429.6,590.4 441.3,590.4 441.3,574.6 429.6,574.6"/>
      <polygon fill-opacity="1" fill="#C7C7FF" points="445.3,590.4 456.9,590.4 456.9,574.6 445.3,574.6"/>
      <polygon fill-opacity="1" fill="#CBCBFF" points="460.9,590.4 472.6,590.4 472.6,574.6 460.9,574.6"/>
      <polygon fill-opacity="1" fill="#CDCDFF" points="476.6,590.4 488.3,590.4 488.3,574.6 476.6,574.6"/>
      <polygon fill-opacity="1" fill="#D2D2FF" points="492.3,590.4 503.9,590.4 503.9,574.6 492.3,574.6"/>
      <polygon fill-opacity="1" fill="#D9D9FF" points="507.9,590.4 519.6,590.4 519.6,574.6 507.9,574.6"/>
      <polygon fill-opacity="1" fill="#E1E1FF" points="523.6,590.4 535.2,590.4 535.2,574.6 523.6,574.6"/>
      <polygon fill-opacity="1" fill="#E2E2FF" points="539.2,590.4 550.9,590.4 550.9,574.6 539.2,574.6"/>
      <polygon fill-opacity="1" fill="#E2E2FF" points="554.9,590.4 566.5,590.4 566.5,574.6 554.9,574.6"/>
      <polygon fill-opacity="1" fill="#E0E0FF" points="570.5,590.4 582.2,590.4 582.2,574.6 570.5,574.6"/>
      <polygon fill-opacity="1" fill="#E1E1FF" points="586.2,590.4 597.8,590.4 597.8,574.6 586.2,574.6"/>
      <polygon fill-opacity="1" fill="#E4E4FF" points="601.8,590.4 613.5,590.4 613.5,574.6 601.8,574.6"/>
      <polygon fill-opacity="1" fill="#E5E5FF" points="617.5,590.4 629.1,590.4 629.1,574.6 617.5,574.6"/>
      <polygon fill-opacity="1" fill="#DFDFFF" points="335.7,570.6 347.4,570.6 347.4,554.9 335.7,554.9"/>
      <polygon fill-opacity="1" fill="#9C9CFF" points="351.4,570.6 363.0,570.6 363.0,554.9 351.4,554.9"/>
      <polygon fill-opacity="1" fill="#7676FF" points="367.0,570.6 378.7,570.6 378.7,554.9 367.0,554.9"/>
      <polygon fill-opacity="1" fill="#5C5CFF" points="382.7,570.6 394.3,570.6 394.3,554.9 382.7,554.9"/>
      <polygon fill-opacity="1" fill="#7A7AFF" points="398.3,570.6 410.0,570.6 410.0,554.9 398.3,554.9"/>
      <polygon fill-opacity="1" fill="#8282FF" points="414.0,570.6 425.6,570.6 425.6,554.9 414.0,554.9"/>
      <polygon fill-opacity="1" fill="#A9A9FF" points="429.6,570.6 441.3,570.6 441.3,554.9 429.6,554.9"/>
      <polygon fill-opacity="1" fill="#B7B7FF" points="445.3,570.6 456.9,570.6 456.9,554.9 445.3,554.9"/>
      <polygon fill-opacity="1" fill="#C2C2FF" points="460.9,570.6 472.6,570.6 472.6,554.9 460.9,554.9"/>
      <polygon fill-opacity="1" fill="#CECEFF" points="476.6,570.6 488.3,570.6 488.3,554.9 476.6,554.9"/>
      <polygon fill-opacity="1" fill="#C7C7FF" points="492.3,570.6 503.9,570.6 503.9,554.9 492.3,554.9"/>
      <polygon fill-opacity="1" fill="#C6C6FF" points="507.9,570.6 519.6,570.6 519.6,554.9 507.9,554.9"/>
      <polygon fill-opacity="1" fill="#D5D5FF" points="523.6,570.6 535.2,570.6 535.2,554.9 523.6,554.9"/>
      <polygon fill-opacity="1" fill="#D0D0FF" points="539.2,570.6 550.9,570.6 550.9,554.9 539.2,554.9"/>
      <polygon fill-opacity="1" fill="#D3D3FF" points="554.9,570.6 566.5,570.6 566.5,554.9 554.9,554.9"/>
      <polygon fill-opacity="1" fill="#D8D8FF" points="570.5,570.6 582.2,570.6 582.2,554.9 570.5,554.9"/>
      <polygon fill-opacity="1" fill="#DFDFFF" points="586.2,570.6 597.8,570.6 597.8,554.9 586.2,554.9"/>
      <polygon fill-opacity="1" fill="#E2E2FF" points="601.8,570.6 613.5,570.6 613.5,554.9 601.8,554.9"/>
      <polygon fill-opacity="1" fill="#E2E2FF" points="617.5,570.6 629.1,570.6 629.1,554.9 617.5,554.9"/>
      <polygon fill-opacity="1" fill="#E2E2FF" points="633.1,570.6 644.8,570.6 644.8,554.9 633.1,554.9"/>
      <polygon fill-opacity="1" fill="#E3E3FF" points="367.0,550.9 378.7,550.9 378.7,535.2 367.0,535.2"/>
      <polygon fill-opacity="1" fill="#BABAFF" points="382.7,550.9 394.3,550.9 394.3,535.2 382.7,535.2"/>
      <polygon fill-opacity="1" fill="#8F8FFF" points="398.3,550.9 410.0,550.9 410.0,535.2 398.3,535.2"/>
      <polygon fill-opacity="1" fill="#6B6BFF" points="414.0,550.9 425.6,550.9 425.6,535.2 414.0,535.2"/>
      <polygon fill-opacity="1" fill="#7777FF" points="429.6,550.9 441.3,550.9 441.3,535.2 429.6,535.2"/>
      <polygon fill-opacity="1" fill="#9999FF" points="445.3,550.9 456.9,550.9 456.9,535.2 445.3,535.2"/>
      <polygon fill-opacity="1" fill="#A2A2FF" points="460.9,550.9 472.6,550.9 472.6,535.2 460.9,535.2"/>
      <polygon fill-opacity="1" fill="#BDBDFF" points="476.6,550.9 488.3,550.9 488.3,535.2 476.6,535.2"/>
      <polygon fill-opacity="1" fill="#C6C6FF" points="492.3,550.9 503.9,550.9 503.9,535.2 492.3,535.2"/>
      <polygon fill-opacity="1" fill="#CCCCFF" points="507.9,550.9 519.6,550.9 519.6,535.2 507.9,535.2"/>
      <polygon fill-opacity="1" fill="#CBCBFF" points="523.6,550.9 535.2,550.9 535.2,535.2 523.6,535.2"/>
      <polygon fill-opacity="1" fill="#CFCFFF" points="539.2,550.9 550.9,550.9 550.9,535.2 539.2,535.2"/>
      <polygon fill-opacity="1" fill="#D5D5FF" points="554.9,550.9 566.5,550.9 566.5,535.2 554.9,535.2"/>
      <polygon fill-opacity="1" fill="#CECEFF" points="570.5,550.9 582.2,550.9 582.2,535.2 570.5,535.2"/>
      <polygon fill-opacity="1" fill="#D8D8FF" points="586.2,550.9 597.8,550.9 597.8,535.2 586.2,535.2"/>
      <polygon fill-opacity="1" fill="#DDDDFF" points="601.8,550.9 613.5,550.9 613.5,535.2 601.8,535.2"/>
      <polygon fill-opacity="1" fill="#DFDFFF" points="617.5,550.9 629.1,550.9 629.1,535.2 617.5,535.2"/>
      <polygon fill-opacity="1" fill="#DEDEFF" points="633.1,550.9 644.8,550.9 644.8,535.2 633.1,535.2"/>
      <polygon fill-opacity="1" fill="#E2E2FF" points="648.8,550.9 660.4,550.9 660.4,535.2 648.8,535.2"/>
      <polygon fill-opacity="1" fill="#E3E3FF" points="398.3,531.2 410.0,531.2 410.0,515.5 398.3,515.5"/>
      <polygon fill-opacity="1" fill="#CECEFF" points="414.0,531.2 425.6,531.2 425.6,515.5 414.0,515.5"/>
      <polygon fill-opacity="1" fill="#9F9FFF" points="429.6,531.2 441.3,531.2 441.3,515.5 429.6,515.5"/>
      <polygon fill-opacity="1" fill="#8B8BFF" points="445.3,531.2 456.9,531.2 456.9,515.5 445.3,515.5"/>
      <polygon fill-opacity="1" fill="#9292FF" points="460.9,531.2 472.6,531.2 472.6,515.5 460.9,515.5"/>
      <polygon fill-opacity="1" fill="#9F9FFF" points="476.6,531.2 488.3,531.2 488.3,515.5 476.6,515.5"/>
      <polygon fill-opacity="1" fill="#AAAAFF" points="492.3,531.2 503.9,531.2 503.9,515.5 492.3,515.5"/>
      <polygon fill-opacity="1" fill="#BABAFF" points="507.9,531.2 519.6,531.2 519.6,515.5 507.9,515.5"/>
      <polygon fill-opacity="1" fill="#BBBBFF" points="523.6,531.2 535.2,531.2 535.2,515.5 523.6,515.5"/>
      <polygon fill-opacity="1" fill="#C7C7FF" points="539.2,531.2 550.9,531.2 550.9,515.5 539.2,515.5"/>
      <polygon fill-opacity="1" fill="#C9C9FF" points="554.9,531.2 566.5,531.2 566.5,515.5 554.9,515.5"/>
      <polygon fill-opacity="1" fill="#CDCDFF" points="570.5,531.2 582.2,531.2 582.2,515.5 570.5,515.5"/>
      <polygon fill-opacity="1" fill="#CFCFFF" points="586.2,531.2 597.8,531.2 597.8,515.5 586.2,515.5"/>
      <polygon fill-opacity="1" fill="#D3D3FF" points="601.8,531.2 613.5,531.2 613.5,515.5 601.8,515.5"/>
      <polygon fill-opacity="1" fill="#D8D8FF" points="617.5,531.2 629.1,531.2 629.1,515.5 617.5,515.5"/>
      <polygon fill-opacity="1" fill="#E3E3FF" points="633.1,531.2 644.8,531.2 644.8,515.5 633.1,515.5"/>
      <polygon fill-opacity="1" fill="#DBDBFF" points="648.8,531.2 660.4,531.2 660.4,515.5 648.8,515.5"/>
      <polygon fill-opacity="1" fill="#E0E0FF" points="664.4,531.2 676.1,531.2 676.1,515.5 664.4,515.5"/>
      <polygon fill-opacity="1" fill="#E4E4FF" points="680.1,531.2 691.7,531.2 691.7,515.5 680.1,515.5"/>
      <polygon fill-opacity="1" fill="#E5E5FF" points="695.7,531.2 707.4,531.2 707.4,515.5 695.7,515.5"/>
      <polygon fill-opacity="1" fill="#E1E1FF" points="429.6,511.5 441.3,511.5 441.3,495.7 429.6,495.7"/>
      <polygon fill-opacity="1" fill="#C7C7FF" points="445.3,511.5 456.9,511.5 456.9,495.7 445.3,495.7"/>
      <polygon fill-opacity="1" fill="#8888FF" points="460.9,511.5 472.6,511.5 472.6,495.7 460.9,495.7"/>
      <polygon fill-opacity="1" fill="#A6A6FF" points="476.6,511.5 488.3,511.5 488.3,495.7 476.6,495.7"/>
      <polygon fill-opacity="1" fill="#9696FF" points="492.3,511.5 503.9,511.5 503.9,495.7 492.3,495.7"/>
      <polygon fill-opacity="1" fill="#9D9DFF" points="507.9,511.5 519.6,511.5 519.6,495.7 507.9,495.7"/>
      <polygon fill-opacity="1" fill="#ABABFF" points="523.6,511.5 535.2,511.5 535.2,495.7 523.6,495.7"/>
      <polygon fill-opacity="1" fill="#C8C8FF" points="539.2,511.5 550.9,511.5 550.9,495.7 539.2,495.7"/>
      <polygon fill-opacity="1" fill="#BABAFF" points="554.9,511.5 566.5,511.5 566.5,495.7 554.9,495.7"/>
      <polygon fill-opacity="1" fill="#CACAFF" points="570.5,511.5 582.2,511.5 582.2,495.7 570.5,495.7"/>
      <polygon fill-opacity="1" fill="#D0D0FF" points="586.2,511.5 597.8,511.5 597.8,495.7 586.2,495.7"/>
      <polygon fill-opacity="1" fill="#D5D5FF" points="601.8,511.5 613.5,511.5 613.5,495.7 601.8,495.7"/>
      <polygon fill-opacity="1" fill="#D7D7FF" points="617.5,511.5 629.1,511.5 629.1,495.7 617.5,495.7"/>
      <polygon fill-opacity="1" fill="#DBDBFF" points="633.1,511.5 644.8,511.5 644.8,495.7 633.1,495.7"/>
      <polygon fill-opacity="1" fill="#DFDFFF" points="648.8,511.5 660.4,511.5 660.4,495.7 648.8,495.7"/>
      <polygon fill-opacity="1" fill="#E2E2FF" points="664.4,511.5 676.1,511.5 676.1,495.7 664.4,495.7"/>
      <polygon fill-opacity="1" fill="#E1E1FF" points="680.1,511.5 691.7,511.5 691.7,495.7 680.1,495.7"/>
      <polygon fill-opacity="1" fill="#E2E2FF" points="695.7,511.5 707.4,511.5 707.4,495.7 695.7,495.7"/>
      <polygon fill-opacity="1" fill="#E2E2FF" points="711.4,511.5 723.1,511.5 723.1,495.7 711.4,495.7"/>
      <polygon fill-opacity="1" fill="#E0E0FF" points="460.9,491.7 472.6,491.7 472.6,476.0 460.9,476.0"/>
      <polygon fill-opacity="1" fill="#B2B2FF" points="476.6,491.7 488.3,491.7 488.3,476.0 476.6,476.0"/>
      <polygon fill-opacity="1" fill="#B3B3FF" points="492.3,491.7 503.9,491.7 503.9,476.0 492.3,476.0"/>
      <polygon fill-opacity="1" fill="#BEBEFF" points="507.9,491.7 519.6,491.7 519.6,476.0 507.9,476.0"/>
      <polygon fill-opacity="1" fill="#CACAFF" points="523.6,491.7 535.2,491.7 535.2,476.0 523.6,476.0"/>
      <polygon fill-opacity="1" fill="#B3B3FF" points="539.2,491.7 550.9,491.7 550.9,476.0 539.2,476.0"/>
      <polygon fill-opacity="1" fill="#CFCFFF" points="554.9,491.7 566.5,491.7 566.5,476.0 554.9,476.0"/>
      <polygon fill-opacity="1" fill="#BDBDFF" points="570.5,491.7 582.2,491.7 582.2,476.0 570.5,476.0"/>
      <polygon fill-opacity="1" fill="#C7C7FF" points="586.2,491.7 597.8,491.7 597.8,476.0 586.2,476.0"/>
      <polygon fill-opacity="1" fill="#C7C7FF" points="601.8,491.7 613.5,491.7 613.5,476.0 601.8,476.0"/>
      <polygon fill-opacity="1" fill="#CBCBFF" points="617.5,491.7 629.1,491.7 629.1,476.0 617.5,476.0"/>
      <polygon fill-opacity="1" fill="#D5D5FF" points="633.1,491.7 644.8,491.7 644.8,476.0 633.1,476.0"/>
      <polygon fill-opacity="1" fill="#D7D7FF" points="648.8,491.7 660.4,491.7 660.4,476.0 648.8,476.0"/>
      <polygon fill-opacity="1" fill="#DDDDFF" points="664.4,491.7 676.1,491.7 676.1,476.0 664.4,476.0"/>
      <polygon fill-opacity="1" fill="#E2E2FF" points="680.1,491.7 691.7,491.7 691.7,476.0 680.1,476.0"/>
      <polygon fill-opacity="1" fill="#E2E2FF" points="695.7,491.7 707.4,491.7 707.4,476.0 695.7,476.0"/>
      <polygon fill-opacity="1" fill="#E4E4FF" points="711.4,491.7 723.1,491.7 723.1,476.0 711.4,476.0"/>
      <polygon fill-opacity="1" fill="#E5E5FF" points="476.6,472.0 488.3,472.0 488.3,456.3 476.6,456.3"/>
      <polygon fill-opacity="1" fill="#D7D7FF" points="492.3,472.0 503.9,472.0 503.9,456.3 492.3,456.3"/>
      <polygon fill-opacity="1" fill="#C9C9FF" points="507.9,472.0 519.6,472.0 519.6,456.3 507.9,456.3"/>
      <polygon fill-opacity="1" fill="#C7C7FF" points="523.6,472.0 535.2,472.0 535.2,456.3 523.6,456.3"/>
      <polygon fill-opacity="1" fill="#CACAFF" points="539.2,472.0 550.9,472.0 550.9,456.3 539.2,456.3"/>
      <polygon fill-opacity="1" fill="#D1D1FF" points="554.9,472.0 566.5,472.0 566.5,456.3 554.9,456.3"/>
      <polygon fill-opacity="1" fill="#D3D3FF" points="570.5,472.0 582.2,472.0 582.2,456.3 570.5,456.3"/>
      <polygon fill-opacity="1" fill="#DDDDFF" points="586.2,472.0 597.8,472.0 597.8,456.3 586.2,456.3"/>
      <polygon fill-opacity="1" fill="#D7D7FF" points="601.8,472.0 613.5,472.0 613.5,456.3 601.8,456.3"/>
      <polygon fill-opacity="1" fill="#DDDDFF" points="617.5,472.0 629.1,472.0 629.1,456.3 617.5,456.3"/>
      <polygon fill-opacity="1" fill="#D8D8FF" points="633.1,472.0 644.8,472.0 644.8,456.3 633.1,456.3"/>
      <polygon fill-opacity="1" fill="#D9D9FF" points="648.8,472.0 660.4,472.0 660.4,456.3 648.8,456.3"/>
      <polygon fill-opacity="1" fill="#DFDFFF" points="664.4,472.0 676.1,472.0 676.1,456.3 664.4,456.3"/>
      <polygon fill-opacity="1" fill="#E2E2FF" points="680.1,472.0 691.7,472.0 691.7,456.3 680.1,456.3"/>
      <polygon fill-opacity="1" fill="#DDDDFF" points="695.7,472.0 707.4,472.0 707.4,456.3 695.7,456.3"/>
      <polygon fill-opacity="1" fill="#E4E4FF" points="711.4,472.0 723.1,472.0 723.1,456.3 711.4,456.3"/>
      <polygon fill-opacity="1" fill="#DFDFFF" points="507.9,452.3 519.6,452.3 519.6,436.5 507.9,436.5"/>
      <polygon fill-opacity="1" fill="#D5D5FF" points="523.6,452.3 535.2,452.3 535.2,436.5 523.6,436.5"/>
      <polygon fill-opacity="1" fill="#D7D7FF" points="539.2,452.3 550.9,452.3 550.9,436.5 539.2,436.5"/>
      <polygon fill-opacity="1" fill="#DADAFF" points="554.9,452.3 566.5,452.3 566.5,436.5 554.9,436.5"/>
      <polygon fill-opacity="1" fill="#DEDEFF" points="570.5,452.3 582.2,452.3 582.2,436.5 570.5,436.5"/>
      <polygon fill-opacity="1" fill="#DBDBFF" points="586.2,452.3 597.8,452.3 597.8,436.5 586.2,436.5"/>
      <polygon fill-opacity="1" fill="#D9D9FF" points="601.8,452.3 613.5,452.3 613.5,436.5 601.8,436.5"/>
      <polygon fill-opacity="1" fill="#DFDFFF" points="617.5,452.3 629.1,452.3 629.1,436.5 617.5,436.5"/>
      <polygon fill-opacity="1" fill="#E0E0FF" points="633.1,452.3 644.8,452.3 644.8,436.5 633.1,436.5"/>
      <polygon fill-opacity="1" fill="#E4E4FF" points="648.8,452.3 660.4,452.3 660.4,436.5 648.8,436.5"/>
      <polygon fill-opacity="1" fill="#E5E5FF" points="664.4,452.3 676.1,452.3 676.1,436.5 664.4,436.5"/>
      <polygon fill-opacity="1" fill="#E3E3FF" points="680.1,452.3 691.7,452.3 691.7,436.5 680.1,436.5"/>
      <polygon fill-opacity="1" fill="#E5E5FF" points="695.7,452.3 707.4,452.3 707.4,436.5 695.7,436.5"/>
      <polygon fill-opacity="1" fill="#E5E5FF" points="711.4,452.3 723.1,452.3 723.1,436.5 711.4,436.5"/>
      <polygon fill-opacity="1" fill="#E4E4FF" points="539.2,432.5 550.9,432.5 550.9,416.8 539.2,416.8"/>
      <polygon fill-opacity="1" fill="#E4E4FF" points="554.9,432.5 566.5,432.5 566.5,416.8 554.9,416.8"/>
      <polygon fill-opacity="1" fill="#E5E5FF" points="570.5,432.5 582.2,432.5 582.2,416.8 570.5,416.8"/>
      <polygon fill-opacity="1" fill="#E2E2FF" points="586.2,432.5 597.8,432.5 597.8,416.8 586.2,416.8"/>
      <polygon fill-opacity="1" fill="#E1E1FF" points="601.8,432.5 613.5,432.5 613.5,416.8 601.8,416.8"/>
      <polygon fill-opacity="1" fill="#E3E3FF" points="617.5,432.5 629.1,432.5 629.1,416.8 617.5,416.8"/>
      <polygon fill-opacity="1" fill="#E2E2FF" points="633.1,432.5 644.8,432.5 644.8,416.8 633.1,416.8"/>
      <polygon fill-opacity="1" fill="#E5E5FF" points="648.8,432.5 660.4,432.5 660.4,416.8 648.8,416.8"/>
      <polygon fill-opacity="1" fill="#E5E5FF" points="664.4,432.5 676.1,432.5 676.1,416.8 664.4,416.8"/>
      <polygon fill-opacity="1" fill="#E5E5FF" points="680.1,432.5 691.7,432.5 691.7,416.8 680.1,416.8"/>
      <polygon fill-opacity="1" fill="#E4E4FF" points="695.7,432.5 707.4,432.5 707.4,416.8 695.7,416.8"/>
      <polygon fill-opacity="1" fill="#E4E4FF" points="711.4,432.5 723.1,432.5 723.1,416.8 711.4,416.8"/>
      <polygon fill-opacity="1" fill="#E5E5FF" points="554.9,412.8 566.5,412.8 566.5,397.1 554.9,397.1"/>
      <polygon fill-opacity="1" fill="#E5E5FF" points="570.5,412.8 582.2,412.8 582.2,397.1 570.5,397.1"/>
      <polygon fill-opacity="1" fill="#E5E5FF" points="617.5,412.8 629.1,412.8 629.1,397.1 617.5,397.1"/>
      <polygon fill-opacity="1" fill="#E5E5FF" points="633.1,412.8 644.8,412.8 644.8,397.1 633.1,397.1"/>
      <polygon fill-opacity="1" fill="#E3E3FF" points="648.8,412.8 660.4,412.8 660.4,397.1 648.8,397.1"/>
      <polygon fill-opacity="1" fill="#E5E5FF" points="680.1,412.8 691.7,412.8 691.7,397.1 680.1,397.1"/>
      <polygon fill-opacity="1" fill="#E5E5FF" points="695.7,412.8 707.4,412.8 707.4,397.1 695.7,397.1"/>
      <polygon fill-opacity="1" fill="#E5E5FF" points="711.4,412.8 723.1,412.8 723.1,397.1 711.4,397.1"/>
    </g>
  </g>
  <g class="comfort" clip-path="url(#rectClipPath)"/>
  <g class="grid">
    <line class="line-grid" x1="5" y1="691" x2="5" y2="670.9592502910572"/>
    <line class="line-axis" x1="5" y1="698" x2="5" y2="691"/>
    <text class="text-grid" text-anchor="middle" x="5" y="698" dy="1.0em">-15</text>
    <line class="line-grid" x1="83.26666666666667" y1="691" x2="83.26666666666667" y2="659.4603372248571"/>
    <line class="line-axis" x1="83.26666666666667" y1="698" x2="83.26666666666667" y2="691"/>
    <text class="text-grid" text-anchor="middle" x="83.26666666666667" y="698" dy="1.0em">-10</text>
    <line class="line-grid" x1="161.53333333333333" y1="691" x2="161.53333333333333" y2="642.1767236663615"/>
    <line class="line-axis" x1="161.53333333333333" y1="698" x2="161.53333333333333" y2="691"/>
    <text class="text-grid" text-anchor="middle" x="161.53333333333333" y="698" dy="1.0em">-5</text>
    <line class="line-grid" x1="239.8" y1="691" x2="239.8" y2="616.5769013628343"/>
    <line class="line-axis" x1="239.8" y1="698" x2="239.8" y2="691"/>
    <text class="text-grid" text-anchor="middle" x="239.8" y="698" dy="1.0em">0</text>
    <line class="line-grid" x1="318.06666666666666" y1="691" x2="318.06666666666666" y2="584.4768221902744"/>
    <line class="line-axis" x1="318.06666666666666" y1="698" x2="318.06666666666666" y2="691"/>
    <text class="text-grid" text-anchor="middle" x="318.06666666666666" y="698" dy="1.0em">5</text>
    <line class="line-grid" x1="396.33333333333337" y1="691" x2="396.33333333333337" y2="540.5399753571234"/>
    <line class="line-axis" x1="396.33333333333337" y1="698" x2="396.33333333333337" y2="691"/>
    <text class="text-grid" text-anchor="middle" x="396.33333333333337" y="698" dy="1.0em">10</text>
    <line class="line-grid" x1="474.6" y1="691" x2="474.6" y2="481.0390506811074"/>
    <line class="line-axis" x1="474.6" y1="698" x2="474.6" y2="691"/>
    <text class="text-grid" text-anchor="middle" x="474.6" y="698" dy="1.0em">15</text>
    <line class="line-grid" x1="552.8666666666667" y1="691" x2="552.8666666666667" y2="401.2238059810507"/>
    <line class="line-axis" x1="552.8666666666667" y1="698" x2="552.8666666666667" y2="691"/>
    <text class="text-grid" text-anchor="middle" x="552.8666666666667" y="698" dy="1.0em">20</text>
    <line class="line-grid" x1="631.1333333333333" y1="691" x2="631.1333333333333" y2="295.01558464755954"/>
    <line class="line-axis" x1="631.1333333333333" y1="698" x2="631.1333333333333" y2="691"/>
    <text class="text-grid" text-anchor="middle" x="631.1333333333333" y="698" dy="1.0em">25</text>
    <line class="line-grid" x1="709.4000000000001" y1="691" x2="709.4000000000001" y2="154.58854209707454"/>
    <line class="line-axis" x1="709.4000000000001" y1="698" x2="709.4000000000001" y2="691"/>
    <text class="text-grid" text-anchor="middle" x="709.4000000000001" y="698" dy="1.0em">30</text>
    <line class="line-grid" x1="787.6666666666667" y1="691" x2="787.6666666666667" y2="40"/>
    <line class="line-axis" x1="787.6666666666667" y1="698" x2="787.6666666666667" y2="691"/>
    <text class="text-grid" text-anchor="middle" x="787.6666666666667" y="698" dy="1.0em">35</text>
    <line class="line-grid" x1="865.9333333333334" y1="691" x2="865.9333333333334" y2="40"/>
    <line class="line-axis" x1="865.9333333333334" y1="698" x2="865.9333333333334" y2="691"/>
    <text class="text-grid" text-anchor="middle" x="865.9333333333334" y="698" dy="1.0em">40</text>
    <line class="line-grid" x1="944.2" y1="691" x2="944.2" y2="40"/>
    <line class="line-axis" x1="944.2" y1="698" x2="944.2" y2="691"/>
    <line class="line-grid" x1="5" y1="691" x2="5" y2="670.9592502910572"/>
    <line class="line-axis" x1="5" y1="691" x2="5" y2="695"/>
    <line class="line-grid" x1="20.653333333333336" y1="691" x2="20.653333333333336" y2="669.0264713299734"/>
    <line class="line-axis" x1="20.653333333333336" y1="691" x2="20.653333333333336" y2="695"/>
    <line class="line-grid" x1="36.30666666666667" y1="691" x2="36.30666666666667" y2="666.9240679178322"/>
    <line class="line-axis" x1="36.30666666666667" y1="691" x2="36.30666666666667" y2="695"/>
    <line class="line-grid" x1="51.96" y1="691" x2="51.96" y2="664.6386400297889"/>
    <line class="line-axis" x1="51.96" y1="691" x2="51.96" y2="695"/>
    <line class="line-grid" x1="67.61333333333334" y1="691" x2="67.61333333333334" y2="662.1558447482018"/>
    <line class="line-axis" x1="67.61333333333334" y1="691" x2="67.61333333333334" y2="695"/>
    <line class="line-grid" x1="83.26666666666667" y1="691" x2="83.26666666666667" y2="659.4603372248571"/>
    <line class="line-axis" x1="83.26666666666667" y1="691" x2="83.26666666666667" y2="695"/>
    <line class="line-grid" x1="98.92" y1="691" x2="98.92" y2="656.5357082076896"/>
    <line class="line-axis" x1="98.92" y1="691" x2="98.92" y2="695"/>
    <line class="line-grid" x1="114.57333333333334" y1="691" x2="114.57333333333334" y2="653.3644179122447"/>
    <line class="line-axis" x1="114.57333333333334" y1="691" x2="114.57333333333334" y2="695"/>
    <line class="line-grid" x1="130.2266666666667" y1="691" x2="130.2266666666667" y2="649.9277259985959"/>
    <line class="line-axis" x1="130.2266666666667" y1="691" x2="130.2266666666667" y2="695"/>
    <line class="line-grid" x1="145.88" y1="691" x2="145.88" y2="646.2056173926422"/>
    <line class="line-axis" x1="145.88" y1="691" x2="145.88" y2="695"/>
    <line class="line-grid" x1="161.53333333333333" y1="691" x2="161.53333333333333" y2="642.1767236663615"/>
    <line class="line-axis" x1="161.53333333333333" y1="691" x2="161.53333333333333" y2="695"/>
    <line class="line-grid" x1="177.18666666666667" y1="691" x2="177.18666666666667" y2="637.8182396643689"/>
    <line class="line-axis" x1="177.18666666666667" y1="691" x2="177.18666666666667" y2="695"/>
    <line class="line-grid" x1="192.84" y1="691" x2="192.84" y2="633.1058350336756"/>
    <line class="line-axis" x1="192.84" y1="691" x2="192.84" y2="695"/>
    <line class="line-grid" x1="208.49333333333334" y1="691" x2="208.49333333333334" y2="628.0135602794601"/>
    <line class="line-axis" x1="208.49333333333334" y1="691" x2="208.49333333333334" y2="695"/>
    <line class="line-grid" x1="224.14666666666668" y1="691" x2="224.14666666666668" y2="622.5137469314634"/>
    <line class="line-axis" x1="224.14666666666668" y1="691" x2="224.14666666666668" y2="695"/>
    <line class="line-grid" x1="239.8" y1="691" x2="239.8" y2="616.5769013628343"/>
    <line class="line-axis" x1="239.8" y1="691" x2="239.8" y2="695"/>
    <line class="line-grid" x1="255.45333333333335" y1="691" x2="255.45333333333335" y2="610.9487455504816"/>
    <line class="line-axis" x1="255.45333333333335" y1="691" x2="255.45333333333335" y2="695"/>
    <line class="line-grid" x1="271.1066666666667" y1="691" x2="271.1066666666667" y2="604.951580732917"/>
    <line class="line-axis" x1="271.1066666666667" y1="691" x2="271.1066666666667" y2="695"/>
    <line class="line-grid" x1="286.76" y1="691" x2="286.76" y2="598.5561446380968"/>
    <line class="line-axis" x1="286.76" y1="691" x2="286.76" y2="695"/>
    <line class="line-grid" x1="302.41333333333336" y1="691" x2="302.41333333333336" y2="591.7393209094672"/>
    <line class="line-axis" x1="302.41333333333336" y1="691" x2="302.41333333333336" y2="695"/>
    <line class="line-grid" x1="318.06666666666666" y1="691" x2="318.06666666666666" y2="584.4768221902744"/>
    <line class="line-axis" x1="318.06666666666666" y1="691" x2="318.06666666666666" y2="695"/>
    <line class="line-grid" x1="333.72" y1="691" x2="333.72" y2="576.7431350474286"/>
    <line class="line-axis" x1="333.72" y1="691" x2="333.72" y2="695"/>
    <line class="line-grid" x1="349.37333333333333" y1="691" x2="349.37333333333333" y2="568.5114618885952"/>
    <line class="line-axis" x1="349.37333333333333" y1="691" x2="349.37333333333333" y2="695"/>
    <line class="line-grid" x1="365.0266666666667" y1="691" x2="365.0266666666667" y2="559.7536596361481"/>
    <line class="line-axis" x1="365.0266666666667" y1="691" x2="365.0266666666667" y2="695"/>
    <line class="line-grid" x1="380.68" y1="691" x2="380.68" y2="550.4401748988679"/>
    <line class="line-axis" x1="380.68" y1="691" x2="380.68" y2="695"/>
    <line class="line-grid" x1="396.33333333333337" y1="691" x2="396.33333333333337" y2="540.5399753571234"/>
    <line class="line-axis" x1="396.33333333333337" y1="691" x2="396.33333333333337" y2="695"/>
    <line class="line-grid" x1="411.9866666666667" y1="691" x2="411.9866666666667" y2="530.0204770497583"/>
    <line class="line-axis" x1="411.9866666666667" y1="691" x2="411.9866666666667" y2="695"/>
    <line class="line-grid" x1="427.64000000000004" y1="691" x2="427.64000000000004" y2="518.8474672203965"/>
    <line class="line-axis" x1="427.64000000000004" y1="691" x2="427.64000000000004" y2="695"/>
    <line class="line-grid" x1="443.29333333333335" y1="691" x2="443.29333333333335" y2="506.98502234743677"/>
    <line class="line-axis" x1="443.29333333333335" y1="691" x2="443.29333333333335" y2="695"/>
    <line class="line-grid" x1="458.9466666666667" y1="691" x2="458.9466666666667" y2="494.39542094499217"/>
    <line class="line-axis" x1="458.9466666666667" y1="691" x2="458.9466666666667" y2="695"/>
    <line class="line-grid" x1="474.6" y1="691" x2="474.6" y2="481.0390506811074"/>
    <line class="line-axis" x1="474.6" y1="691" x2="474.6" y2="695"/>
    <line class="line-grid" x1="490.2533333333334" y1="691" x2="490.2533333333334" y2="466.8743093145574"/>
    <line class="line-axis" x1="490.2533333333334" y1="691" x2="490.2533333333334" y2="695"/>
    <line class="line-grid" x1="505.9066666666667" y1="691" x2="505.9066666666667" y2="451.8574989013576"/>
    <line class="line-axis" x1="505.9066666666667" y1="691" x2="505.9066666666667" y2="695"/>
    <line class="line-grid" x1="521.5600000000001" y1="691" x2="521.5600000000001" y2="435.9427126668853"/>
    <line class="line-axis" x1="521.5600000000001" y1="691" x2="521.5600000000001" y2="695"/>
    <line class="line-grid" x1="537.2133333333334" y1="691" x2="537.2133333333334" y2="419.0817138779658"/>
    <line class="line-axis" x1="537.2133333333334" y1="691" x2="537.2133333333334" y2="695"/>
    <line class="line-grid" x1="552.8666666666667" y1="691" x2="552.8666666666667" y2="401.2238059810507"/>
    <line class="line-axis" x1="552.8666666666667" y1="691" x2="552.8666666666667" y2="695"/>
    <line class="line-grid" x1="568.52" y1="691" x2="568.52" y2="382.31569319672946"/>
    <line class="line-axis" x1="568.52" y1="691" x2="568.52" y2="695"/>
    <line class="line-grid" x1="584.1733333333334" y1="691" x2="584.1733333333334" y2="362.3013306762831"/>
    <line class="line-axis" x1="584.1733333333334" y1="691" x2="584.1733333333334" y2="695"/>
    <line class="line-grid" x1="599.8266666666667" y1="691" x2="599.8266666666667" y2="341.12176323170274"/>
    <line class="line-axis" x1="599.8266666666667" y1="691" x2="599.8266666666667" y2="695"/>
    <line class="line-grid" x1="615.48" y1="691" x2="615.48" y2="318.7149515453295"/>
    <line class="line-axis" x1="615.48" y1="691" x2="615.48" y2="695"/>
    <line class="line-grid" x1="631.1333333333333" y1="691" x2="631.1333333333333" y2="295.01558464755954"/>
    <line class="line-axis" x1="631.1333333333333" y1="691" x2="631.1333333333333" y2="695"/>
    <line class="line-grid" x1="646.7866666666667" y1="691" x2="646.7866666666667" y2="269.9548773191219"/>
    <line class="line-axis" x1="646.7866666666667" y1="691" x2="646.7866666666667" y2="695"/>
    <line class="line-grid" x1="662.44" y1="691" x2="662.44" y2="243.46035092646272"/>
    <line class="line-axis" x1="662.44" y1="691" x2="662.44" y2="695"/>
    <line class="line-grid" x1="678.0933333333334" y1="691" x2="678.0933333333334" y2="215.45559603253602"/>
    <line class="line-axis" x1="678.0933333333334" y1="691" x2="678.0933333333334" y2="695"/>
    <line class="line-grid" x1="693.7466666666667" y1="691" x2="693.7466666666667" y2="185.8600149380226"/>
    <line class="line-axis" x1="693.7466666666667" y1="691" x2="693.7466666666667" y2="695"/>
    <line class="line-grid" x1="709.4000000000001" y1="691" x2="709.4000000000001" y2="154.58854209707454"/>
    <line class="line-axis" x1="709.4000000000001" y1="691" x2="709.4000000000001" y2="695"/>
    <line class="line-grid" x1="725.0533333333334" y1="691" x2="725.0533333333334" y2="121.55134011314703"/>
    <line class="line-axis" x1="725.0533333333334" y1="691" x2="725.0533333333334" y2="695"/>
    <line class="line-grid" x1="740.7066666666667" y1="691" x2="740.7066666666667" y2="86.65346875091433"/>
    <line class="line-axis" x1="740.7066666666667" y1="691" x2="740.7066666666667" y2="695"/>
    <line class="line-grid" x1="756.36" y1="691" x2="756.36" y2="49.79452409439857"/>
    <line class="line-axis" x1="756.36" y1="691" x2="756.36" y2="695"/>
    <line class="line-grid" x1="772.0133333333333" y1="691" x2="772.0133333333333" y2="40"/>
    <line class="line-axis" x1="772.0133333333333" y1="691" x2="772.0133333333333" y2="695"/>
    <line class="line-grid" x1="787.6666666666667" y1="691" x2="787.6666666666667" y2="40"/>
    <line class="line-axis" x1="787.6666666666667" y1="691" x2="787.6666666666667" y2="695"/>
    <line class="line-grid" x1="803.32" y1="691" x2="803.32" y2="40"/>
    <line class="line-axis" x1="803.32" y1="691" x2="803.32" y2="695"/>
    <line class="line-grid" x1="818.9733333333334" y1="691" x2="818.9733333333334" y2="40"/>
    <line class="line-axis" x1="818.9733333333334" y1="691" x2="818.9733333333334" y2="695"/>
    <line class="line-grid" x1="834.6266666666667" y1="691" x2="834.6266666666667" y2="40"/>
    <line class="line-axis" x1="834.6266666666667" y1="691" x2="834.6266666666667" y2="695"/>
    <line class="line-grid" x1="850.2800000000001" y1="691" x2="850.2800000000001" y2="40"/>
    <line class="line-axis" x1="850.2800000000001" y1="691" x2="850.2800000000001" y2="695"/>
    <line class="line-grid" x1="865.9333333333334" y1="691" x2="865.9333333333334" y2="40"/>
    <line class="line-axis" x1="865.9333333333334" y1="691" x2="865.9333333333334" y2="695"/>
    <line class="line-grid" x1="881.5866666666667" y1="691" x2="881.5866666666667" y2="40"/>
    <line class="line-axis" x1="881.5866666666667" y1="691" x2="881.5866666666667" y2="695"/>
    <line class="line-grid" x1="897.24" y1="691" x2="897.24" y2="40"/>
    <line class="line-axis" x1="897.24" y1="691" x2="897.24" y2="695"/>
    <line class="line-grid" x1="912.8933333333334" y1="691" x2="912.8933333333334" y2="40"/>
    <line class="line-axis" x1="912.8933333333334" y1="691" x2="912.8933333333334" y2="695"/>
    <line class="line-grid" x1="928.5466666666667" y1="691" x2="928.5466666666667" y2="40"/>
    <line class="line-axis" x1="928.5466666666667" y1="691" x2="928.5466666666667" y2="695"/>
    <line class="line-grid" x1="944.2" y1="691" x2="944.2" y2="40"/>
    <line class="line-axis" x1="944.2" y1="691" x2="944.2" y2="695"/>
    <text class="text-axis" text-anchor="middle" x="944.2" y="698" dy="1.0em">°C</text>
    <text fill="slate" font-size="0.8em" text-anchor="middle" x="474.6" y="717.6666666666666" dy="0.4em">Dry Bulb Temperature (°C)</text>
    <line class="line-grid" x1="5" y1="691" x2="944.2" y2="691"/>
    <line class="line-axis" x1="951.2" y1="691" x2="944.2" y2="691"/>
    <text class="text-grid" text-anchor="start" x="953.2" y="691" dy="0.4em">0</text>
    <line class="line-grid" x1="301.1760232687642" y1="592.3636363636364" x2="944.2" y2="592.3636363636364"/>
    <line class="line-axis" x1="951.2" y1="592.3636363636364" x2="944.2" y2="592.3636363636364"/>
    <text class="text-grid" text-anchor="start" x="953.2" y="592.3636363636364" dy="0.4em">5</text>
    <line class="line-grid" x1="460.20632390394144" y1="493.7272727272727" x2="944.2" y2="493.7272727272727"/>
    <line class="line-axis" x1="951.2" y1="493.7272727272727" x2="944.2" y2="493.7272727272727"/>
    <text class="text-grid" text-anchor="start" x="953.2" y="493.7272727272727" dy="0.4em">10</text>
    <line class="line-grid" x1="558.2493456487483" y1="395.09090909090907" x2="944.2" y2="395.09090909090907"/>
    <line class="line-axis" x1="951.2" y1="395.09090909090907" x2="944.2" y2="395.09090909090907"/>
    <text class="text-grid" text-anchor="start" x="953.2" y="395.09090909090907" dy="0.4em">15</text>
    <line class="line-grid" x1="630.1886918465262" y1="296.45454545454544" x2="944.2" y2="296.45454545454544"/>
    <line class="line-axis" x1="951.2" y1="296.45454545454544" x2="944.2" y2="296.45454545454544"/>
    <text class="text-grid" text-anchor="start" x="953.2" y="296.45454545454544" dy="0.4em">20</text>
    <line class="line-grid" x1="687.3426189133572" y1="197.8181818181818" x2="944.2" y2="197.8181818181818"/>
    <line class="line-axis" x1="951.2" y1="197.8181818181818" x2="944.2" y2="197.8181818181818"/>
    <text class="text-grid" text-anchor="start" x="953.2" y="197.8181818181818" dy="0.4em">25</text>
    <line class="line-grid" x1="734.8903272088412" y1="99.18181818181819" x2="944.2" y2="99.18181818181819"/>
    <line class="line-axis" x1="951.2" y1="99.18181818181819" x2="944.2" y2="99.18181818181819"/>
    <text class="text-grid" text-anchor="start" x="953.2" y="99.18181818181819" dy="0.4em">30</text>
    <line class="line-grid" x1="5" y1="691" x2="944.2" y2="691"/>
    <line class="line-axis" x1="944.2" y1="691" x2="948.2" y2="691"/>
    <line class="line-grid" x1="5" y1="671.2727272727273" x2="944.2" y2="671.2727272727273"/>
    <line class="line-axis" x1="944.2" y1="671.2727272727273" x2="948.2" y2="671.2727272727273"/>
    <line class="line-grid" x1="123.0725437007809" y1="651.5454545454545" x2="944.2" y2="651.5454545454545"/>
    <line class="line-axis" x1="944.2" y1="651.5454545454545" x2="948.2" y2="651.5454545454545"/>
    <line class="line-grid" x1="196.9954436579978" y1="631.8181818181818" x2="944.2" y2="631.8181818181818"/>
    <line class="line-axis" x1="944.2" y1="631.8181818181818" x2="948.2" y2="631.8181818181818"/>
    <line class="line-grid" x1="252.0561411524529" y1="612.0909090909091" x2="944.2" y2="612.0909090909091"/>
    <line class="line-axis" x1="944.2" y1="612.0909090909091" x2="948.2" y2="612.0909090909091"/>
    <line class="line-grid" x1="301.1760232687642" y1="592.3636363636364" x2="944.2" y2="592.3636363636364"/>
    <line class="line-axis" x1="944.2" y1="592.3636363636364" x2="948.2" y2="592.3636363636364"/>
    <line class="line-grid" x1="342.0230950499212" y1="572.6363636363636" x2="944.2" y2="572.6363636363636"/>
    <line class="line-axis" x1="944.2" y1="572.6363636363636" x2="948.2" y2="572.6363636363636"/>
    <line class="line-grid" x1="377.08954921371105" y1="552.9090909090909" x2="944.2" y2="552.9090909090909"/>
    <line class="line-axis" x1="944.2" y1="552.9090909090909" x2="948.2" y2="552.9090909090909"/>
    <line class="line-grid" x1="407.8757461549854" y1="533.1818181818182" x2="944.2" y2="533.1818181818182"/>
    <line class="line-axis" x1="944.2" y1="533.1818181818182" x2="948.2" y2="533.1818181818182"/>
    <line class="line-grid" x1="435.35748058330563" y1="513.4545454545455" x2="944.2" y2="513.4545454545455"/>
    <line class="line-axis" x1="944.2" y1="513.4545454545455" x2="948.2" y2="513.4545454545455"/>
    <line class="line-grid" x1="460.20632390394144" y1="493.7272727272727" x2="944.2" y2="493.7272727272727"/>
    <line class="line-axis" x1="944.2" y1="493.7272727272727" x2="948.2" y2="493.7272727272727"/>
    <line class="line-grid" x1="482.9049282583772" y1="474" x2="944.2" y2="474"/>
    <line class="line-axis" x1="944.2" y1="474" x2="948.2" y2="474"/>
    <line class="line-grid" x1="503.81225929754413" y1="454.27272727272725" x2="944.2" y2="454.27272727272725"/>
    <line class="line-axis" x1="944.2" y1="454.27272727272725" x2="948.2" y2="454.27272727272725"/>
    <line class="line-grid" x1="523.2028159283724" y1="434.5454545454545" x2="944.2" y2="434.5454545454545"/>
    <line class="line-axis" x1="944.2" y1="434.5454545454545" x2="948.2" y2="434.5454545454545"/>
    <line class="line-grid" x1="541.2913912181443" y1="414.8181818181818" x2="944.2" y2="414.8181818181818"/>
    <line class="line-axis" x1="944.2" y1="414.8181818181818" x2="948.2" y2="414.8181818181818"/>
    <line class="line-grid" x1="558.2493456487483" y1="395.09090909090907" x2="944.2" y2="395.09090909090907"/>
    <line class="line-axis" x1="944.2" y1="395.09090909090907" x2="948.2" y2="395.09090909090907"/>
    <text class="text-axis" text-anchor="start" x="946.2" y="40" dy="-0.8em">g/kg</text>
    <text fill="slate" transform="rotate(90, 970.8666666666667, 365.5)" font-size="0.8em" text-anchor="middle" x="970.8666666666667" y="365.5" dy="0.0em">Absolute Humidity (g/kg)</text>
    <polyline class="line-axis stroke-dashed" opacity="1" points="5.0,689.0 20.7,688.8 36.3,688.6 52.0,688.4 67.6,688.1 83.3,687.8 98.9,687.6 114.6,687.2 130.2,686.9 145.9,686.5 161.5,686.1 177.2,685.7 192.8,685.2 208.5,684.7 224.1,684.2 239.8,683.6 255.5,683.0 271.1,682.4 286.8,681.8 302.4,681.1 318.1,680.3 333.7,679.6 349.4,678.8 365.0,677.9 380.7,676.9 396.3,676.0 412.0,674.9 427.6,673.8 443.3,672.6 458.9,671.3 474.6,670.0 490.3,668.6 505.9,667.1 521.6,665.5 537.2,663.8 552.9,662.0 568.5,660.1 584.2,658.1 599.8,656.0 615.5,653.8 631.1,651.4 646.8,648.9 662.4,646.2 678.1,643.4 693.7,640.5 709.4,637.4 725.1,634.1 740.7,630.6 756.4,626.9 772.0,623.0 787.7,618.9 803.3,614.5 819.0,610.0 834.6,605.1 850.3,600.0 865.9,594.6 881.6,588.9 897.2,582.9 912.9,576.5 928.5,569.8 944.2,562.7 " fill="none"/>
    <line class="line-axis" x1="939.2" y1="562.7450088564" x2="944.2" y2="562.7450088564"/>
    <text class="text-grid" text-anchor="end" opacity="1" x="937.2" y="562.7450088564" dy="0.4em">10%</text>
    <polyline class="line-axis stroke-dashed" opacity="1" points="5.0,687.0 20.7,686.6 36.3,686.2 52.0,685.7 67.6,685.2 83.3,684.7 98.9,684.1 114.6,683.5 130.2,682.8 145.9,682.0 161.5,681.2 177.2,680.4 192.8,679.4 208.5,678.4 224.1,677.3 239.8,676.1 255.5,675.0 271.1,673.8 286.8,672.5 302.4,671.1 318.1,669.7 333.7,668.1 349.4,666.5 365.0,664.8 380.7,662.9 396.3,660.9 412.0,658.8 427.6,656.6 443.3,654.2 458.9,651.7 474.6,649.0 490.3,646.2 505.9,643.2 521.6,640.0 537.2,636.6 552.9,633.0 568.5,629.3 584.2,625.3 599.8,621.0 615.5,616.5 631.1,611.8 646.8,606.8 662.4,601.5 678.1,595.9 693.7,590.0 709.4,583.7 725.1,577.1 740.7,570.1 756.4,562.8 772.0,555.0 787.7,546.8 803.3,538.1 819.0,528.9 834.6,519.2 850.3,509.0 865.9,498.2 881.6,486.8 897.2,474.8 912.9,462.1 928.5,448.7 944.2,434.5 " fill="none"/>
    <line class="line-axis" x1="939.2" y1="434.4900177128" x2="944.2" y2="434.4900177128"/>
    <text class="text-grid" text-anchor="end" opacity="1" x="937.2" y="434.4900177128" dy="0.4em">20%</text>
    <polyline class="line-axis stroke-dashed" opacity="1" points="5.0,685.0 20.7,684.4 36.3,683.8 52.0,683.1 67.6,682.3 83.3,681.5 98.9,680.7 114.6,679.7 130.2,678.7 145.9,677.6 161.5,676.4 177.2,675.0 192.8,673.6 208.5,672.1 224.1,670.5 239.8,668.7 255.5,667.0 271.1,665.2 286.8,663.3 302.4,661.2 318.1,659.0 333.7,656.7 349.4,654.3 365.0,651.6 380.7,648.8 396.3,645.9 412.0,642.7 427.6,639.4 443.3,635.8 458.9,632.0 474.6,628.0 490.3,623.8 505.9,619.3 521.6,614.5 537.2,609.4 552.9,604.1 568.5,598.4 584.2,592.4 599.8,586.0 615.5,579.3 631.1,572.2 646.8,564.7 662.4,556.7 678.1,548.3 693.7,539.5 709.4,530.1 725.1,520.2 740.7,509.7 756.4,498.6 772.0,487.0 787.7,474.6 803.3,461.6 819.0,447.9 834.6,433.3 850.3,418.0 865.9,401.8 881.6,384.7 897.2,366.7 912.9,347.6 928.5,327.5 944.2,306.2 " fill="none"/>
    <line class="line-axis" x1="939.2" y1="306.2350265692" x2="944.2" y2="306.2350265692"/>
    <text class="text-grid" text-anchor="end" opacity="1" x="937.2" y="306.2350265692" dy="0.4em">30%</text>
    <polyline class="line-axis stroke-dashed" opacity="1" points="5.0,683.0 20.7,682.2 36.3,681.4 52.0,680.5 67.6,679.5 83.3,678.4 98.9,677.2 114.6,675.9 130.2,674.6 145.9,673.1 161.5,671.5 177.2,669.7 192.8,667.8 208.5,665.8 224.1,663.6 239.8,661.2 255.5,659.0 271.1,656.6 286.8,654.0 302.4,651.3 318.1,648.4 333.7,645.3 349.4,642.0 365.0,638.5 380.7,634.8 396.3,630.8 412.0,626.6 427.6,622.1 443.3,617.4 458.9,612.4 474.6,607.0 490.3,601.3 505.9,595.3 521.6,589.0 537.2,582.2 552.9,575.1 568.5,567.5 584.2,559.5 599.8,551.0 615.5,542.1 631.1,532.6 646.8,522.6 662.4,512.0 678.1,500.8 693.7,488.9 709.4,476.4 725.1,463.2 740.7,449.3 756.4,434.5 772.0,418.9 787.7,402.5 803.3,385.1 819.0,366.8 834.6,347.5 850.3,327.0 865.9,305.4 881.6,282.6 897.2,258.6 912.9,233.2 928.5,206.3 944.2,178.0 " fill="none"/>
    <line class="line-axis" x1="939.2" y1="177.98003542560002" x2="944.2" y2="177.98003542560002"/>
    <text class="text-grid" text-anchor="end" opacity="1" x="937.2" y="177.98003542560002" dy="0.4em">40%</text>
    <polyline class="line-axis stroke-dashed" opacity="1" points="5.0,681.0 20.7,680.0 36.3,679.0 52.0,677.8 67.6,676.6 83.3,675.2 98.9,673.8 114.6,672.2 130.2,670.5 145.9,668.6 161.5,666.6 177.2,664.4 192.8,662.1 208.5,659.5 224.1,656.8 239.8,653.8 255.5,651.0 271.1,648.0 286.8,644.8 302.4,641.4 318.1,637.7 333.7,633.9 349.4,629.8 365.0,625.4 380.7,620.7 396.3,615.8 412.0,610.5 427.6,604.9 443.3,599.0 458.9,592.7 474.6,586.0 490.3,578.9 505.9,571.4 521.6,563.5 537.2,555.0 552.9,546.1 568.5,536.7 584.2,526.7 599.8,516.1 615.5,504.9 631.1,493.0 646.8,480.5 662.4,467.2 678.1,453.2 693.7,438.4 709.4,422.8 725.1,406.3 740.7,388.8 756.4,370.4 772.0,350.9 787.7,330.4 803.3,308.7 819.0,285.8 834.6,261.6 850.3,236.0 865.9,209.0 881.6,180.6 897.2,150.5 912.9,118.7 928.5,85.2 944.2,49.7 " fill="none"/>
    <line class="line-axis" x1="939.2" y1="49.725044282000034" x2="944.2" y2="49.725044282000034"/>
    <text class="text-grid" text-anchor="end" opacity="1" x="937.2" y="49.725044282000034" dy="0.4em">50%</text>
    <polyline class="line-axis stroke-dashed" opacity="1" points="5.0,679.0 20.7,677.8 36.3,676.6 52.0,675.2 67.6,673.7 83.3,672.1 98.9,670.3 114.6,668.4 130.2,666.4 145.9,664.1 161.5,661.7 177.2,659.1 192.8,656.3 208.5,653.2 224.1,649.9 239.8,646.3 255.5,643.0 271.1,639.4 286.8,635.5 302.4,631.4 318.1,627.1 333.7,622.4 349.4,617.5 365.0,612.3 380.7,606.7 396.3,600.7 412.0,594.4 427.6,587.7 443.3,580.6 458.9,573.0 474.6,565.0 490.3,556.5 505.9,547.5 521.6,538.0 537.2,527.8 552.9,517.1 568.5,505.8 584.2,493.8 599.8,481.1 615.5,467.6 631.1,453.4 646.8,438.4 662.4,422.5 678.1,405.7 693.7,387.9 709.4,369.2 725.1,349.3 740.7,328.4 756.4,306.3 772.0,282.9 787.7,258.3 803.3,232.2 819.0,204.7 834.6,175.7 850.3,145.0 865.9,112.7 881.6,78.5 897.2,42.4 898.2,40.0 " fill="none"/>
    <line class="line-axis" x1="898.217416921206" y1="35" x2="898.217416921206" y2="40"/>
    <text class="text-grid" text-anchor="middle" x="898.217416921206" y="35" dy="-0.4em">60%</text>
    <polyline class="line-axis stroke-dashed" opacity="1" points="5.0,677.0 20.7,675.6 36.3,674.1 52.0,672.5 67.6,670.8 83.3,668.9 98.9,666.9 114.6,664.7 130.2,662.2 145.9,659.6 161.5,656.8 177.2,653.8 192.8,650.5 208.5,646.9 224.1,643.1 239.8,638.9 255.5,635.0 271.1,630.8 286.8,626.3 302.4,621.5 318.1,616.4 333.7,611.0 349.4,605.3 365.0,599.1 380.7,592.6 396.3,585.7 412.0,578.3 427.6,570.5 443.3,562.2 458.9,553.4 474.6,544.0 490.3,534.1 505.9,523.6 521.6,512.5 537.2,500.7 552.9,488.2 568.5,474.9 584.2,460.9 599.8,446.1 615.5,430.4 631.1,413.8 646.8,396.3 662.4,377.7 678.1,358.1 693.7,337.4 709.4,315.5 725.1,292.4 740.7,268.0 756.4,242.2 772.0,214.9 787.7,186.1 803.3,155.7 819.0,123.7 834.6,89.8 850.3,54.0 856.1,40.0 " fill="none"/>
    <line class="line-axis" x1="856.0944926912794" y1="35" x2="856.0944926912794" y2="40"/>
    <text class="text-grid" text-anchor="middle" x="856.0944926912794" y="35" dy="-0.4em">70%</text>
    <polyline class="line-axis stroke-dashed" opacity="1" points="5.0,675.0 20.7,673.4 36.3,671.7 52.0,669.9 67.6,667.9 83.3,665.8 98.9,663.4 114.6,660.9 130.2,658.1 145.9,655.2 161.5,651.9 177.2,648.5 192.8,644.7 208.5,640.6 224.1,636.2 239.8,631.5 255.5,627.0 271.1,622.2 286.8,617.0 302.4,611.6 318.1,605.8 333.7,599.6 349.4,593.0 365.0,586.0 380.7,578.6 396.3,570.6 412.0,562.2 427.6,553.3 443.3,543.8 458.9,533.7 474.6,523.0 490.3,511.7 505.9,499.7 521.6,487.0 537.2,473.5 552.9,459.2 568.5,444.1 584.2,428.0 599.8,411.1 615.5,393.2 631.1,374.2 646.8,354.2 662.4,333.0 678.1,310.6 693.7,286.9 709.4,261.9 725.1,235.4 740.7,207.5 756.4,178.0 772.0,146.9 787.7,114.0 803.3,79.3 819.0,42.6 820.0,40.0 " fill="none"/>
    <line class="line-axis" x1="820.032899701279" y1="35" x2="820.032899701279" y2="40"/>
    <text class="text-grid" text-anchor="middle" x="820.032899701279" y="35" dy="-0.4em">80%</text>
    <polyline class="line-axis stroke-dashed" opacity="1" points="5.0,673.0 20.7,671.2 36.3,669.3 52.0,667.3 67.6,665.0 83.3,662.6 98.9,660.0 114.6,657.1 130.2,654.0 145.9,650.7 161.5,647.1 177.2,643.1 192.8,638.9 208.5,634.3 224.1,629.4 239.8,624.0 255.5,619.0 271.1,613.6 286.8,607.8 302.4,601.7 318.1,595.1 333.7,588.2 349.4,580.8 365.0,572.9 380.7,564.5 396.3,555.6 412.0,546.1 427.6,536.1 443.3,525.4 458.9,514.1 474.6,502.0 490.3,489.3 505.9,475.8 521.6,461.4 537.2,446.3 552.9,430.2 568.5,413.2 584.2,395.2 599.8,376.1 615.5,355.9 631.1,334.6 646.8,312.1 662.4,288.2 678.1,263.0 693.7,236.4 709.4,208.2 725.1,178.5 740.7,147.1 756.4,113.9 772.0,78.9 787.7,41.9 788.4,40.0 " fill="none"/>
    <line class="line-axis" x1="788.4223386765697" y1="35" x2="788.4223386765697" y2="40"/>
    <text class="text-grid" text-anchor="middle" x="788.4223386765697" y="35" dy="-0.4em">90%</text>
    <polyline class="line-axis" opacity="0.6" points="5.0,671.0 20.7,669.0 36.3,666.9 52.0,664.6 67.6,662.2 83.3,659.5 98.9,656.5 114.6,653.4 130.2,649.9 145.9,646.2 161.5,642.2 177.2,637.8 192.8,633.1 208.5,628.0 224.1,622.5 239.8,616.6 255.5,610.9 271.1,605.0 286.8,598.6 302.4,591.7 318.1,584.5 333.7,576.7 349.4,568.5 365.0,559.8 380.7,550.4 396.3,540.5 412.0,530.0 427.6,518.8 443.3,507.0 458.9,494.4 474.6,481.0 490.3,466.9 505.9,451.9 521.6,435.9 537.2,419.1 552.9,401.2 568.5,382.3 584.2,362.3 599.8,341.1 615.5,318.7 631.1,295.0 646.8,270.0 662.4,243.5 678.1,215.5 693.7,185.9 709.4,154.6 725.1,121.6 740.7,86.7 756.4,49.8 760.3,40.0 " fill="none"/>
    <line class="line-axis" x1="760.2986489697217" y1="35" x2="760.2986489697217" y2="40"/>
    <text class="text-grid" text-anchor="middle" x="760.2986489697217" y="35" dy="-0.4em">100%</text>
  </g>
  <g class="info opacity-transition">
    <text class="text-axis" text-anchor="start" x="5" y="40" dy="-0.5em"/>
    <text class="text-axis" text-anchor="start" x="5" y="52" dy="-0.5em"/>
    <text class="text-axis" text-anchor="start" x="5" y="64" dy="-0.5em"/>
    <text class="text-axis" text-anchor="start" x="5" y="76" dy="-0.5em"/>
    <text class="text-axis" text-anchor="start" x="5" y="88" dy="-0.5em"/>
    <text class="text-axis" text-anchor="start" x="5" y="100" dy="-0.5em"/>
    <text class="text-axis" text-anchor="start" x="5" y="112" dy="-0.5em"/>
    <text class="text-axis" text-anchor="start" x="5" y="124" dy="-0.5em"/>
    <text class="text-axis" text-anchor="start" x="5" y="136" dy="-0.5em"/>
    <text class="text-axis" text-anchor="start" x="5" y="154" dy="-0.5em"/>
  </g>
  <g class="overlay opacity-transition"></g></svg>