<?xml version="1.0" encoding="UTF-8"?>
<svg id="chart-psychro" xmlns="http://www.w3.org/2000/svg" xmlns:xlink="http://www.w3.org/1999/xlink" xmlns:svg="http://www.w3.org/2000/svg" xmlns:sodipodi="http://sodipodi.sourceforge.net/DTD/sodipodi-0.dtd" xmlns:inkscape="http://www.inkscape.org/namespaces/inkscape" version="1.1" viewBox="0 0 1000 730">
  <!-- Generator: Adobe Illustrator 29.1.0, SVG Export Plug-In . SVG Version: 2.1.0 Build 142)  -->
  <defs>
    <style>
      .st0, .st1, .st2, .st3, .st4, .st5 {
        fill: none;
      }

      .st1 {
        opacity: .6;
      }

      .st1, .st6, .st7 {
        isolation: isolate;
      }

      .st1, .st2, .st5 {
        stroke: #94a3b8;
      }

      .st1, .st5 {
        stroke-width: 1.2px;
      }

      .st6 {
        fill: #94a3b8;
      }

      .st6, .st7 {
        font-family: MyriadPro-Regular, 'Myriad Pro';
        font-size: 16px;
      }

      .st2 {
        stroke-dasharray: 3 3;
        stroke-opacity: .9;
      }

      .st3, .st4 {
        stroke: #475569;
        stroke-opacity: .7;
      }

      .st8 {
        fill: #2c354b;
      }

      .st7 {
        fill: #374151;
      }

      .st4 {
        stroke-width: .5px;
      }

      .st9 {
        display: none;
      }

      .st10 {
        clip-path: url(#clippath);
      }

      .st11 {
        filter: url(#shadow);
      }
    </style>
    <filter id="shadow">
      <feGaussianBlur in="SourceAlpha" stdDeviation="6"/>
      <feOffset dx="3" dy="3" result="offsetblur"/>
      <feFlood flood-color="#000" flood-opacity="0.15"/>
      <feComposite in2="offsetblur" operator="in"/>
      <feMerge>
        <feMergeNode/>
        <feMergeNode in="SourceGraphic"/>
      </feMerge>
    </filter>
    <clipPath id="clippath">
      <polygon class="st0" points="20 671 35.7 669 51.3 666.9 67 664.6 82.6 662.2 98.3 659.5 113.9 656.5 129.6 653.4 145.2 649.9 160.9 646.2 176.5 642.2 192.2 637.8 207.8 633.1 223.5 628 239.1 622.5 254.8 616.6 270.5 610.9 286.1 605 301.8 598.6 317.4 591.7 333.1 584.5 348.7 576.7 364.4 568.5 380 559.8 395.7 550.4 411.3 540.5 427 530 442.6 518.8 458.3 507 473.9 494.4 489.6 481 505.3 466.9 520.9 451.9 536.6 435.9 552.2 419.1 567.9 401.2 583.5 382.3 599.2 362.3 614.8 341.1 630.5 318.7 646.1 295 661.8 270 677.4 243.5 693.1 215.5 708.7 185.9 724.4 154.6 740.1 121.6 755.7 86.7 771.4 49.8 775 40 959.2 40 959.2 691 20 691 20 671"/>
    </clipPath>
  </defs>
  <sodipodi:namedview id="namedview3047" bordercolor="#ffffff" borderopacity="1" inkscape:current-layer="chart-psychro" inkscape:cx="139.29349" inkscape:cy="185.12448" inkscape:pagecheckerboard="1" inkscape:pageopacity="0" inkscape:pageshadow="0" inkscape:showpageshadow="0" inkscape:window-height="2054" inkscape:window-maximized="0" inkscape:window-width="1918" inkscape:window-x="0" inkscape:window-y="0" inkscape:zoom="3.0547013" showgrid="false"/>
  <g class="st11">
    <polygon class="st8" points="20 671 35.7 669 51.3 666.9 67 664.6 82.6 662.2 98.3 659.5 113.9 656.5 129.6 653.4 145.2 649.9 160.9 646.2 176.5 642.2 192.2 637.8 207.8 633.1 223.5 628 239.1 622.5 254.8 616.6 270.5 610.9 286.1 605 301.8 598.6 317.4 591.7 333.1 584.5 348.7 576.7 364.4 568.5 380 559.8 395.7 550.4 411.3 540.5 427 530 442.6 518.8 458.3 507 473.9 494.4 489.6 481 505.3 466.9 520.9 451.9 536.6 435.9 552.2 419.1 567.9 401.2 583.5 382.3 599.2 362.3 614.8 341.1 630.5 318.7 646.1 295 661.8 270 677.4 243.5 693.1 215.5 708.7 185.9 724.4 154.6 740.1 121.6 755.7 86.7 771.4 49.8 775 40 959.2 40 959.2 691 20 691 20 671"/>
  </g>
  <g class="st10">
    <g class="st9">
      <path d="M15,0h0Z"/>
    </g>
  </g>
  <g>
    <line class="st3" x1="20" y1="691" x2="20" y2="671"/>
    <line class="st5" x1="20" y1="698" x2="20" y2="691"/>
    <text class="st7" transform="translate(11.8 714)"><tspan x="0" y="0">-15</tspan></text>
    <line class="st3" x1="98.3" y1="691" x2="98.3" y2="659.5"/>
    <line class="st5" x1="98.3" y1="698" x2="98.3" y2="691"/>
    <text class="st7" transform="translate(89.1 714)"><tspan x="0" y="0">-10</tspan></text>
    <line class="st3" x1="176.5" y1="691" x2="176.5" y2="642.2"/>
    <line class="st5" x1="176.5" y1="698" x2="176.5" y2="691"/>
    <text class="st7" transform="translate(170.1 714)"><tspan x="0" y="0">-5</tspan></text>
    <line class="st3" x1="254.8" y1="691" x2="254.8" y2="616.6"/>
    <line class="st5" x1="254.8" y1="698" x2="254.8" y2="691"/>
    <text class="st7" transform="translate(251.1 714)"><tspan x="0" y="0">0</tspan></text>
    <line class="st3" x1="333.1" y1="691" x2="333.1" y2="584.5"/>
    <line class="st5" x1="333.1" y1="698" x2="333.1" y2="691"/>
    <text class="st7" transform="translate(329.3 714)"><tspan x="0" y="0">5</tspan></text>
    <line class="st3" x1="411.3" y1="691" x2="411.3" y2="540.5"/>
    <line class="st5" x1="411.3" y1="698" x2="411.3" y2="691"/>
    <text class="st7" transform="translate(403.9 714)"><tspan x="0" y="0">10</tspan></text>
    <line class="st3" x1="489.6" y1="691" x2="489.6" y2="481"/>
    <line class="st5" x1="489.6" y1="698" x2="489.6" y2="691"/>
    <text class="st7" transform="translate(482.1 714)"><tspan x="0" y="0">15</tspan></text>
    <line class="st3" x1="567.9" y1="691" x2="567.9" y2="401.2"/>
    <line class="st5" x1="567.9" y1="698" x2="567.9" y2="691"/>
    <text class="st7" transform="translate(560.4 714)"><tspan x="0" y="0">20</tspan></text>
    <line class="st3" x1="646.1" y1="691" x2="646.1" y2="295"/>
    <line class="st5" x1="646.1" y1="698" x2="646.1" y2="691"/>
    <text class="st7" transform="translate(638.7 714)"><tspan x="0" y="0">25</tspan></text>
    <line class="st3" x1="724.4" y1="691" x2="724.4" y2="154.6"/>
    <line class="st5" x1="724.4" y1="698" x2="724.4" y2="691"/>
    <text class="st7" transform="translate(716.9 714)"><tspan x="0" y="0">30</tspan></text>
    <line class="st3" x1="802.7" y1="691" x2="802.7" y2="40"/>
    <line class="st5" x1="802.7" y1="698" x2="802.7" y2="691"/>
    <text class="st7" transform="translate(795.2 714)"><tspan x="0" y="0">35</tspan></text>
    <line class="st3" x1="880.9" y1="691" x2="880.9" y2="40"/>
    <line class="st5" x1="880.9" y1="698" x2="880.9" y2="691"/>
    <text class="st7" transform="translate(873.5 714)"><tspan x="0" y="0">40</tspan></text>
    <line class="st3" x1="959.2" y1="691" x2="959.2" y2="40"/>
    <line class="st5" x1="959.2" y1="698" x2="959.2" y2="691"/>
    <line class="st3" x1="20" y1="691" x2="959.2" y2="691"/>
    <line class="st3" x1="318.4" y1="592.4" x2="964.8" y2="592.4"/>
    <text class="st7" transform="translate(968.2 598.8)"><tspan x="0" y="0">5</tspan></text>
    <line class="st3" x1="475.2" y1="493.7" x2="964.8" y2="493.7"/>
    <text class="st7" transform="translate(968.2 500.1)"><tspan x="0" y="0">10</tspan></text>
    <line class="st3" x1="573.2" y1="395.1" x2="964.8" y2="395.1"/>
    <text class="st7" transform="translate(968.2 401.5)"><tspan x="0" y="0">15</tspan></text>
    <line class="st3" x1="645.2" y1="296.5" x2="964.8" y2="296.5"/>
    <text class="st7" transform="translate(968.2 302.9)"><tspan x="0" y="0">20</tspan></text>
    <line class="st3" x1="702.3" y1="197.8" x2="964.8" y2="197.8"/>
    <text class="st7" transform="translate(968.2 204.2)"><tspan x="0" y="0">25</tspan></text>
    <line class="st3" x1="749.9" y1="99.2" x2="964.8" y2="99.2"/>
    <text class="st7" transform="translate(968.2 105.6)"><tspan x="0" y="0">30</tspan></text>
    <line class="st4" x1="20" y1="671.3" x2="959.2" y2="671.3"/>
    <line class="st4" x1="138.1" y1="651.5" x2="959.2" y2="651.5"/>
    <line class="st4" x1="212" y1="631.8" x2="959.2" y2="631.8"/>
    <line class="st4" x1="267.1" y1="612.1" x2="959.2" y2="612.1"/>
    <line class="st4" x1="357" y1="572.6" x2="959.2" y2="572.6"/>
    <line class="st4" x1="392.1" y1="552.9" x2="959.2" y2="552.9"/>
    <line class="st4" x1="422.9" y1="533.2" x2="959.2" y2="533.2"/>
    <line class="st4" x1="450.4" y1="513.5" x2="959.2" y2="513.5"/>
    <line class="st4" x1="497.9" y1="474" x2="959.2" y2="474"/>
    <line class="st4" x1="518.8" y1="454.3" x2="959.2" y2="454.3"/>
    <line class="st4" x1="538.2" y1="434.5" x2="959.2" y2="434.5"/>
    <line class="st4" x1="556.3" y1="414.8" x2="959.2" y2="414.8"/>
    <text class="st6" transform="translate(835 33.8)"><tspan x="0" y="0">80%</tspan></text>
    <text class="st6" transform="translate(869.6 33.7)"><tspan x="0" y="0">70%</tspan></text>
    <text class="st6" transform="translate(912 34.2)"><tspan x="0" y="0">60%</tspan></text>
    <text class="st6" transform="translate(798.3 34)"><tspan x="0" y="0">90%</tspan></text>
    <text class="st6" transform="translate(755.7 33.8)"><tspan x="0" y="0">100%</tspan></text>
    <line class="st4" x1="588.5" y1="375.9" x2="959.2" y2="375.9"/>
    <line class="st4" x1="603.7" y1="356.2" x2="959.2" y2="356.2"/>
    <line class="st4" x1="618" y1="336.5" x2="959.2" y2="336.5"/>
    <line class="st4" x1="631.8" y1="316.8" x2="959.2" y2="316.8"/>
    <line class="st4" x1="657.2" y1="277.4" x2="959.2" y2="277.4"/>
    <line class="st4" x1="669.1" y1="257.7" x2="959.2" y2="257.7"/>
    <line class="st4" x1="680.5" y1="237.9" x2="959.2" y2="237.9"/>
    <line class="st4" x1="691.6" y1="218.2" x2="959.2" y2="218.2"/>
    <line class="st4" x1="712.7" y1="178" x2="959.2" y2="178"/>
    <line class="st4" x1="722.6" y1="158.3" x2="959.2" y2="158.3"/>
    <line class="st4" x1="732" y1="138.5" x2="959.2" y2="138.5"/>
    <line class="st4" x1="741.3" y1="118.8" x2="959.2" y2="118.8"/>
    <line class="st4" x1="758.9" y1="79.3" x2="959.2" y2="79.3"/>
    <line class="st4" x1="767.2" y1="59.6" x2="959.2" y2="59.6"/>
    <line class="st4" x1="775.6" y1="39.8" x2="959.2" y2="40"/>
    <polyline class="st2" points="20 689 35.7 688.8 51.3 688.6 67 688.4 82.6 688.1 98.3 687.8 113.9 687.6 129.6 687.2 145.2 686.9 160.9 686.5 176.5 686.1 192.2 685.7 207.8 685.2 223.5 684.7 239.1 684.2 254.8 683.6 270.5 683 286.1 682.4 301.8 681.8 317.4 681.1 333.1 680.3 348.7 679.6 364.4 678.8 380 677.9 395.7 676.9 411.3 676 427 674.9 442.6 673.8 458.3 672.6 473.9 671.3 489.6 670 505.3 668.6 520.9 667.1 536.6 665.5 552.2 663.8 567.9 662 583.5 660.1 599.2 658.1 614.8 656 630.5 653.8 646.1 651.4 661.8 648.9 677.4 646.2 693.1 643.4 708.7 640.5 724.4 637.4 740.1 634.1 755.7 630.6 771.4 626.9 787 623 802.7 618.9 818.3 614.5 834 610 849.6 605.1 865.3 600 880.9 594.6 896.6 588.9 912.2 582.9 927.9 576.5 943.5 569.8 959.2 562.7"/>
    <polyline class="st2" points="20 687 35.7 686.6 51.3 686.2 67 685.7 82.6 685.2 98.3 684.7 113.9 684.1 129.6 683.5 145.2 682.8 160.9 682 176.5 681.2 192.2 680.4 207.8 679.4 223.5 678.4 239.1 677.3 254.8 676.1 270.5 675 286.1 673.8 301.8 672.5 317.4 671.1 333.1 669.7 348.7 668.1 364.4 666.5 380 664.8 395.7 662.9 411.3 660.9 427 658.8 442.6 656.6 458.3 654.2 473.9 651.7 489.6 649 505.3 646.2 520.9 643.2 536.6 640 552.2 636.6 567.9 633 583.5 629.3 599.2 625.3 614.8 621 630.5 616.5 646.1 611.8 661.8 606.8 677.4 601.5 693.1 595.9 708.7 590 724.4 583.7 740.1 577.1 755.7 570.1 771.4 562.8 787 555 802.7 546.8 818.3 538.1 834 528.9 849.6 519.2 865.3 509 880.9 498.2 896.6 486.8 912.2 474.8 927.9 462.1 943.5 448.7 959.2 434.5"/>
    <polyline class="st2" points="20 685 35.7 684.4 51.3 683.8 67 683.1 82.6 682.3 98.3 681.5 113.9 680.7 129.6 679.7 145.2 678.7 160.9 677.6 176.5 676.4 192.2 675 207.8 673.6 223.5 672.1 239.1 670.5 254.8 668.7 270.5 667 286.1 665.2 301.8 663.3 317.4 661.2 333.1 659 348.7 656.7 364.4 654.3 380 651.6 395.7 648.8 411.3 645.9 427 642.7 442.6 639.4 458.3 635.8 473.9 632 489.6 628 505.3 623.8 520.9 619.3 536.6 614.5 552.2 609.4 567.9 604.1 583.5 598.4 599.2 592.4 614.8 586 630.5 579.3 646.1 572.2 661.8 564.7 677.4 556.7 693.1 548.3 708.7 539.5 724.4 530.1 740.1 520.2 755.7 509.7 771.4 498.6 787 487 802.7 474.6 818.3 461.6 834 447.9 849.6 433.3 865.3 418 880.9 401.8 896.6 384.7 912.2 366.7 927.9 347.6 943.5 327.5 959.2 306.2"/>
    <polyline class="st2" points="20 683 35.7 682.2 51.3 681.4 67 680.5 82.6 679.5 98.3 678.4 113.9 677.2 129.6 675.9 145.2 674.6 160.9 673.1 176.5 671.5 192.2 669.7 207.8 667.8 223.5 665.8 239.1 663.6 254.8 661.2 270.5 659 286.1 656.6 301.8 654 317.4 651.3 333.1 648.4 348.7 645.3 364.4 642 380 638.5 395.7 634.8 411.3 630.8 427 626.6 442.6 622.1 458.3 617.4 473.9 612.4 489.6 607 505.3 601.3 520.9 595.3 536.6 589 552.2 582.2 567.9 575.1 583.5 567.5 599.2 559.5 614.8 551 630.5 542.1 646.1 532.6 661.8 522.6 677.4 512 693.1 500.8 708.7 488.9 724.4 476.4 740.1 463.2 755.7 449.3 771.4 434.5 787 418.9 802.7 402.5 818.3 385.1 834 366.8 849.6 347.5 865.3 327 880.9 305.4 896.6 282.6 912.2 258.6 927.9 233.2 943.5 206.3 959.2 178"/>
    <polyline class="st2" points="20 681 35.7 680 51.3 679 67 677.8 82.6 676.6 98.3 675.2 113.9 673.8 129.6 672.2 145.2 670.5 160.9 668.6 176.5 666.6 192.2 664.4 207.8 662.1 223.5 659.5 239.1 656.8 254.8 653.8 270.5 651 286.1 648 301.8 644.8 317.4 641.4 333.1 637.7 348.7 633.9 364.4 629.8 380 625.4 395.7 620.7 411.3 615.8 427 610.5 442.6 604.9 458.3 599 473.9 592.7 489.6 586 505.3 578.9 520.9 571.4 536.6 563.5 552.2 555 567.9 546.1 583.5 536.7 599.2 526.7 614.8 516.1 630.5 504.9 646.1 493 661.8 480.5 677.4 467.2 693.1 453.2 708.7 438.4 724.4 422.8 740.1 406.3 755.7 388.8 771.4 370.4 787 350.9 802.7 330.4 818.3 308.7 834 285.8 849.6 261.6 865.3 236 880.9 209 896.6 180.6 912.2 150.5 927.9 118.7 943.5 85.2 959.2 49.7"/>
    <polyline class="st2" points="20 679 35.7 677.8 51.3 676.6 67 675.2 82.6 673.7 98.3 672.1 113.9 670.3 129.6 668.4 145.2 666.4 160.9 664.1 176.5 661.7 192.2 659.1 207.8 656.3 223.5 653.2 239.1 649.9 254.8 646.3 270.5 643 286.1 639.4 301.8 635.5 317.4 631.4 333.1 627.1 348.7 622.4 364.4 617.5 380 612.3 395.7 606.7 411.3 600.7 427 594.4 442.6 587.7 458.3 580.6 473.9 573 489.6 565 505.3 556.5 520.9 547.5 536.6 538 552.2 527.8 567.9 517.1 583.5 505.8 599.2 493.8 614.8 481.1 630.5 467.6 646.1 453.4 661.8 438.4 677.4 422.5 693.1 405.7 708.7 387.9 724.4 369.2 740.1 349.3 755.7 328.4 771.4 306.3 787 282.9 802.7 258.3 818.3 232.2 834 204.7 849.6 175.7 865.3 145 880.9 112.7 896.6 78.5 912.2 42.4 913.2 40"/>
    <polyline class="st2" points="20 677 35.7 675.6 51.3 674.1 67 672.5 82.6 670.8 98.3 668.9 113.9 666.9 129.6 664.7 145.2 662.2 160.9 659.6 176.5 656.8 192.2 653.8 207.8 650.5 223.5 646.9 239.1 643.1 254.8 638.9 270.5 635 286.1 630.8 301.8 626.3 317.4 621.5 333.1 616.4 348.7 611 364.4 605.3 380 599.1 395.7 592.6 411.3 585.7 427 578.3 442.6 570.5 458.3 562.2 473.9 553.4 489.6 544 505.3 534.1 520.9 523.6 536.6 512.5 552.2 500.7 567.9 488.2 583.5 474.9 599.2 460.9 614.8 446.1 630.5 430.4 646.1 413.8 661.8 396.3 677.4 377.7 693.1 358.1 708.7 337.4 724.4 315.5 740.1 292.4 755.7 268 771.4 242.2 787 214.9 802.7 186.1 818.3 155.7 834 123.7 849.6 89.8 865.3 54 871.1 40"/>
    <polyline class="st2" points="20 675 35.7 673.4 51.3 671.7 67 669.9 82.6 667.9 98.3 665.8 113.9 663.4 129.6 660.9 145.2 658.1 160.9 655.2 176.5 651.9 192.2 648.5 207.8 644.7 223.5 640.6 239.1 636.2 254.8 631.5 270.5 627 286.1 622.2 301.8 617 317.4 611.6 333.1 605.8 348.7 599.6 364.4 593 380 586 395.7 578.6 411.3 570.6 427 562.2 442.6 553.3 458.3 543.8 473.9 533.7 489.6 523 505.3 511.7 520.9 499.7 536.6 487 552.2 473.5 567.9 459.2 583.5 444.1 599.2 428 614.8 411.1 630.5 393.2 646.1 374.2 661.8 354.2 677.4 333 693.1 310.6 708.7 286.9 724.4 261.9 740.1 235.4 755.7 207.5 771.4 178 787 146.9 802.7 114 818.3 79.3 834 42.6 835 40"/>
    <polyline class="st2" points="20 673 35.7 671.2 51.3 669.3 67 667.3 82.6 665 98.3 662.6 113.9 660 129.6 657.1 145.2 654 160.9 650.7 176.5 647.1 192.2 643.1 207.8 638.9 223.5 634.3 239.1 629.4 254.8 624 270.5 619 286.1 613.6 301.8 607.8 317.4 601.7 333.1 595.1 348.7 588.2 364.4 580.8 380 572.9 395.7 564.5 411.3 555.6 427 546.1 442.6 536.1 458.3 525.4 473.9 514.1 489.6 502 505.3 489.3 520.9 475.8 536.6 461.4 552.2 446.3 567.9 430.2 583.5 413.2 599.2 395.2 614.8 376.1 630.5 355.9 646.1 334.6 661.8 312.1 677.4 288.2 693.1 263 708.7 236.4 724.4 208.2 740.1 178.5 755.7 147.1 771.4 113.9 787 78.9 802.7 41.9 803.4 40"/>
    <polyline class="st1" points="20 671 35.7 669 51.3 666.9 67 664.6 82.6 662.2 98.3 659.5 113.9 656.5 129.6 653.4 145.2 649.9 160.9 646.2 176.5 642.2 192.2 637.8 207.8 633.1 223.5 628 239.1 622.5 254.8 616.6 270.5 610.9 286.1 605 301.8 598.6 317.4 591.7 333.1 584.5 348.7 576.7 364.4 568.5 380 559.8 395.7 550.4 411.3 540.5 427 530 442.6 518.8 458.3 507 473.9 494.4 489.6 481 505.3 466.9 520.9 451.9 536.6 435.9 552.2 419.1 567.9 401.2 583.5 382.3 599.2 362.3 614.8 341.1 630.5 318.7 646.1 295 661.8 270 677.4 243.5 693.1 215.5 708.7 185.9 724.4 154.6 740.1 121.6 755.7 86.7 771.4 49.8 775.3 40"/>
    <text class="st6" transform="translate(929.7 592.4) rotate(-22.4)"><tspan x="0" y="0">10%</tspan></text>
    <text class="st6" transform="translate(934 477.9) rotate(-40)"><tspan x="0" y="0">20%</tspan></text>
    <text class="st6" transform="translate(938.8 360.9) rotate(-53.2)"><tspan x="0" y="0">30%</tspan></text>
    <text class="st6" transform="translate(940.6 244.2) rotate(-59.7)"><tspan x="0" y="0">40%</tspan></text>
    <text class="st6" transform="translate(940.6 129.1) rotate(-62.7)"><tspan x="0" y="0">50%</tspan></text>
  </g>
</svg>